<svg xmlns="http://www.w3.org/2000/svg" viewBox="0 0 126 126"><path fill="#dd2a30" d="M0 0h126v126H0z"/><path d="M66.1 105.2v-4.1l3.7 4.1h22.9v-8.9h-3.3L78.9 31l-9.2-10.2h-22L38 85.2h-4.7v9.4l9.2 10.6"/><path d="M95.4 108H41.2L30.6 95.7V82.5h5.1L45.4 18H71l10.5 11.8 10.2 63.8h3.7V108zM71 102.5h18.9v-3.4h-2.8L76.3 32.2l-7.8-8.8H50.2L40.4 88h-4.2v5.7l7.7 8.8h19.5v-8.4l7.6 8.4z"/><path d="M60.6 94.8v-9.7h4.5l-1.9-13.8h-8.6l-2.3 14H57v9.5H33.4v-9.5H38l9.8-64.5h22l10.5 64.9h3.9v9.2" fill="#ff0"/><path d="M31.7 96.4V83.6h4.9l9.7-64.5h24.8L81.6 84h4.2v12.4H59v-13h4.2l-1.5-10.5H56l-1.7 10.8h4.3v12.8l-26.9-.1zm30.5-3.2h20.2v-5.9h-3.7L68.3 22.4H49.2l-9.8 64.5H35v6.2h20.2v-6.2h-5l2.9-17.2h11.3l2.4 17.1H62l.2 6.4z"/><path d="M55.3 61.9h6.4l-3.3-18.2"/><path d="M63.7 63.6H53.4l5-29.4 5.3 29.4zm-6.5-3.4h2.5L58.4 53l-1.2 7.2z"/></svg>