<svg xmlns="http://www.w3.org/2000/svg" version="1" width="807.404" height="122.583"><path fill="none" stroke="#000" stroke-width="15.073" stroke-miterlimit="10" d="M288.152 95.931V20.572"/><path d="M80.987 4.337v14.061l6.572 7.932-.011 65.291-5.515-.032v12.628l.821.963 1.712.57 11.02 12.899h31.325v-12.596l-6.3-7.346V81.125h16.797V66.167l-12.332-14.442-4.184-.01-.015-12.58 12.332 14.429h14.695V18.139L135.572 4.337"/><path fill="none" stroke="#000" stroke-width="7.404" stroke-miterlimit="20" d="M80.987 4.337v14.061l6.572 7.932-.011 65.291-5.515-.032v12.628l.821.963 1.712.57 11.02 12.899h31.325v-12.596l-6.3-7.346V81.125h16.797V66.167l-12.332-14.442-4.184-.01-.015-12.58 12.332 14.429h14.695V18.139L135.572 4.337H80.987z"/><path fill="#ff0" d="M87.548 18.398v73.223h-5.515v12.596h32.546V91.621h-6.301V66.692h16.798V51.725h-16.798V18.398h12.599v20.737h14.695V4.337H80.987v14.061"/><path fill="none" stroke="#000" stroke-width="4.416" stroke-miterlimit="8" d="M87.548 18.398v73.223h-5.515v12.596h32.546V91.621h-6.301V66.692h16.798V51.725h-16.798V18.398h12.599v20.737h14.695V4.337H80.987v14.061h6.561z"/><path d="M144.261 4.309l-.03 34.826 12.337 14.429 11.31-.025v-.032l-.026 38.114h-7.091v12.596l12.339 14.432h35.691v-12.596l-7.827-9.144h-.049l-.026-55.043 10.001 11.698h14.695V18.139l-12.328-13.83"/><path fill="none" stroke="#000" stroke-width="7.404" stroke-miterlimit="20" d="M144.261 4.309l-.03 34.826 12.337 14.429 11.31-.025v-.032l-.026 38.114h-7.091v12.596l12.339 14.432h35.691v-12.596l-7.827-9.144h-.049l-.026-55.043 10.001 11.698h14.695V18.139l-12.328-13.83h-68.996z"/><path fill="#ff0" d="M215.512 4.337v34.798h-14.699V18.398h-9.967v73.223h7.868v12.596h-35.691V91.621h7.089V18.398h-9.916v20.737h-13.703V4.337"/><path fill="none" stroke="#000" stroke-width="4.416" stroke-miterlimit="8" d="M215.512 4.337v34.798h-14.699V18.398h-9.967v73.223h7.868v12.596h-35.691V91.621h7.089V18.398h-9.916v20.737h-13.703V4.337h69.019z"/><path d="M279.85 6.842a8.875 8.875 0 0 0-6.009-2.327h-39.229c-4.93 0-8.922 3.365-8.922 8.292l-.121 82.583c0 2.464.998 4.703 2.613 6.314l12.338 14.431c1.616 1.615 3.844 2.619 6.309 2.466h39.339c4.93.153 8.927-3.845 8.927-8.769v-82.61a8.887 8.887 0 0 0-2.913-6.592"/><path d="M279.85 6.842a8.875 8.875 0 0 0-6.009-2.327h-39.229c-4.93 0-8.922 3.365-8.922 8.292l-.121 82.583c0 2.464.998 4.703 2.613 6.314l12.338 14.431c1.616 1.615 3.844 2.619 6.309 2.466h39.339c4.93.153 8.927-3.845 8.927-8.769v-82.61a8.887 8.887 0 0 0-2.913-6.592L279.85 6.842z" fill="none" stroke="#000" stroke-width="7.404" stroke-miterlimit="20"/><path d="M273.836 104.318a8.924 8.924 0 0 0 8.927-8.927v-81.97a8.927 8.927 0 0 0-8.927-8.927h-39.34a8.927 8.927 0 0 0-8.926 8.927V95.39a8.924 8.924 0 0 0 8.926 8.927" fill="#ff0"/><path d="M273.836 104.318a8.924 8.924 0 0 0 8.927-8.927v-81.97a8.927 8.927 0 0 0-8.927-8.927h-39.34a8.927 8.927 0 0 0-8.926 8.927V95.39a8.924 8.924 0 0 0 8.926 8.927h39.34v.001z" fill="none" stroke="#000" stroke-width="4.416" stroke-miterlimit="8"/><path d="M256.21 91.045c.751 0 4.39-2.946 4.39-6.569V23.708c0-3.623-3.638-6.568-4.39-6.568h-6.011c-.751 0-4.39 2.946-4.39 6.568v60.768c0 3.623 3.638 6.569 4.39 6.569"/><path d="M256.21 91.045c.751 0 4.39-2.946 4.39-6.569V23.708c0-3.623-3.638-6.568-4.39-6.568h-6.011c-.751 0-4.39 2.946-4.39 6.568v60.768c0 3.623 3.638 6.569 4.39 6.569h6.011z" fill="none" stroke="#000" stroke-width="4.416" stroke-miterlimit="8"/><path d="M298.37 91.589l.041-67.537-4.895-5.654V4.309l29.762.007 11.803 13.172V4.105h24.934l12.361 13.768v14.006h-4.989v86.617h-26.199l-10.76-13.135v13.135h-24.706l-12.339-14.972V91.589"/><path fill="none" stroke="#000" stroke-width="7.404" stroke-miterlimit="20" d="M298.37 91.589l.041-67.537-4.895-5.654V4.309l29.762.007 11.803 13.172V4.105h24.934l12.361 13.768v14.006h-4.989v86.617h-26.199l-10.76-13.135v13.135h-24.706l-12.339-14.972V91.589h4.987z"/><path fill="#ff0" d="M312.843 46.871v44.75h5.252v12.596h-24.712V91.621h4.987V18.398h-4.854V4.337h29.782l17.325 58.414V18.139h-5.517V4.071h24.936v14.068h-4.988v86.078h-26.203"/><path fill="none" stroke="#000" stroke-width="4.416" stroke-miterlimit="8" d="M312.843 46.871v44.75h5.252v12.596h-24.712V91.621h4.987V18.398h-4.854V4.337h29.782l17.325 58.414V18.139h-5.517V4.071h24.936v14.068h-4.988v86.078h-26.203l-16.008-57.346z"/><path fill="none" stroke="#000" stroke-width="15.073" stroke-miterlimit="8" d="M659.84 96.168V20.804M375.358 96.168V20.804"/><path fill="none" stroke="#000" stroke-width=".809" stroke-miterlimit="8" d="M452.344 92.933V18.381"/><path d="M371.681 4.543h54.291a8.903 8.903 0 0 1 6.615 2.928l12.38 13.83a8.92 8.92 0 0 1 2.311 5.991v33.332c0 4.924-3.998 8.924-8.927 8.924a8.926 8.926 0 0 1 8.927 8.932v31.475c0 4.929-3.998 8.926-8.927 8.926H384.29l-12.333-14.432V91.854h6.298l-.01-65.57-6.549-7.653"/><path d="M371.681 4.543h54.291a8.903 8.903 0 0 1 6.615 2.928l12.38 13.83a8.92 8.92 0 0 1 2.311 5.991v33.332c0 4.924-3.998 8.924-8.927 8.924a8.926 8.926 0 0 1 8.927 8.932v31.475c0 4.929-3.998 8.926-8.927 8.926H384.29l-12.333-14.432V91.854h6.298l-.01-65.57-6.549-7.653-.015-14.088z" fill="none" stroke="#000" stroke-width="7.404" stroke-miterlimit="20"/><path d="M434.94 46.282l.005-32.786c0-4.934-4.002-8.926-8.932-8.926h-54.316v14.06h6.559v73.224h-6.298v12.596h54.055c4.93 0 8.932-3.997 8.932-8.926l-.005-31.797" fill="#ff0"/><path d="M434.94 46.282l.005-32.786c0-4.934-4.002-8.926-8.932-8.926h-54.316v14.06h6.559v73.224h-6.298v12.596h54.055c4.93 0 8.932-3.997 8.932-8.926l-.005-31.797V46.282z" fill="none" stroke="#000" stroke-width="4.416"/><path d="M433.597 65.094c0-5.562-3.553-10.078-9.124-10.078 5.57 0 9.124-4.517 9.124-10.086m50.234-40.593l12.433 13.771v14.695h-6.039l.038 37.267h15.187l12.332 14.431v6.554l-4.71 2.422v25.404h-50.663l-12.332-14.432V91.854l5.928-.016V25.39l-5.807-6.77V4.337"/><path fill="none" stroke="#000" stroke-width="7.404" stroke-miterlimit="20" d="M483.831 4.337l12.433 13.771v14.695h-6.039l.038 37.267h15.187l12.332 14.431v6.554l-4.71 2.422v25.404h-50.663l-12.332-14.432V91.854l5.928-.016V25.39l-5.807-6.77V4.337h33.633z"/><path fill="#ff0" d="M450.203 4.304V18.63h5.779v73.224h-5.905v12.595h55.373V70.07h-15.484v19.684h-12.073V18.372h6.039V4.304"/><path fill="none" stroke="#000" stroke-width="4.416" stroke-miterlimit="8" d="M450.203 4.304V18.63h5.779v73.224h-5.905v12.595h55.373V70.07h-15.484v19.684h-12.073V18.372h6.039V4.304h-33.729z"/><path d="M399.948 47.759h10.99c.749 0 4.447-2.941 4.447-6.569V25.194c0-3.628-3.698-6.569-4.447-6.569l-10.99.005"/><path d="M399.948 47.759h10.99c.749 0 4.447-2.941 4.447-6.569V25.194c0-3.628-3.698-6.569-4.447-6.569l-10.99.005v29.129z" fill="none" stroke="#000" stroke-width="4.416" stroke-miterlimit="8"/><path d="M415.385 68.369c0-3.624-3.698-6.564-4.447-6.564l-10.99.005v30.17h10.99c.749 0 4.447-2.936 4.447-6.561"/><path d="M415.385 68.369c0-3.624-3.698-6.564-4.447-6.564l-10.99.005v30.17h10.99c.749 0 4.447-2.936 4.447-6.561v-17.05z" fill="none" stroke="#000" stroke-width="4.416" stroke-miterlimit="8"/><path d="M47.79 117.709v-5.469l4.989 5.469h30.867v-12.026h-4.369l-14.171-88.18L52.779 3.702H23.127L10 90.717H3.702v12.727l12.338 14.265"/><path fill="none" stroke="#000" stroke-width="7.404" stroke-miterlimit="20" d="M47.79 117.709v-5.469l4.989 5.469h30.867v-12.026h-4.369l-14.171-88.18L52.779 3.702H23.127L10 90.717H3.702v12.727l12.338 14.265h31.75z"/><path fill="#ff0" d="M40.447 103.582V90.461h6.039l-2.629-18.635H32.308l-3.149 18.891h6.299v12.824l-31.756.041V90.717H10L23.127 3.702h29.652L66.95 91.238h5.247v12.344"/><path fill="none" stroke="#000" stroke-width="4.416" stroke-miterlimit="8" d="M40.447 103.582V90.461h6.039l-2.629-18.635H32.308l-3.149 18.891h6.299v12.824l-31.756.041V90.717H10L23.127 3.702h29.652L66.95 91.238h5.247v12.344h-31.75z"/><path d="M33.358 59.23h8.658l-4.457-24.67"/><path fill="none" stroke="#000" stroke-width="4.416" stroke-miterlimit="8" d="M33.358 59.23h8.658l-4.457-24.67-4.201 24.67z"/><path d="M553.226 118.84v-5.47l4.985 5.47h28.865v-12.031h-2.353L570.544 18.63 558.211 4.833h-29.65l-13.116 87.021h-6.303v12.724l1.962 2.268 3.734 1.882 8.751 10.112"/><path fill="none" stroke="#000" stroke-width="7.404" stroke-miterlimit="20" d="M553.226 118.84v-5.47l4.985 5.47h28.865v-12.031h-2.353L570.544 18.63 558.211 4.833h-29.65l-13.116 87.021h-6.303v12.724l1.962 2.268 3.734 1.882 8.751 10.112h29.637z"/><path fill="#ff0" d="M545.879 104.71V91.589h6.044l-2.628-18.632h-11.547l-3.153 18.897h6.298v12.812l-31.751.044V91.854h6.303l13.116-87.021h29.65l14.174 87.544h5.252v12.333"/><path fill="none" stroke="#000" stroke-width="4.416" stroke-miterlimit="8" d="M545.879 104.71V91.589h6.044l-2.628-18.632h-11.547l-3.153 18.897h6.298v12.812l-31.751.044V91.854h6.303l13.116-87.021h29.65l14.174 87.544h5.252v12.333h-31.758z"/><path d="M538.798 60.356h8.659l-4.465-24.665"/><path fill="none" stroke="#000" stroke-width="4.416" stroke-miterlimit="8" d="M538.798 60.356h8.659l-4.465-24.665-4.194 24.665z"/><path d="M714.711 4.543h-55.46v.068l-.009 14.019 5.542 6.478-.037 66.746h-4.458v12.595l12.333 14.432h54.453V87.654l-12.364-14.335h-.101V62.196l-12.407-14.437h-4.391l-.024-8.769 12.624 14.809h16.663V18.372"/><path fill="none" stroke="#000" stroke-width="7.404" stroke-miterlimit="20" d="M714.711 4.543h-55.46v.068l-.009 14.019 5.542 6.478-.037 66.746h-4.458v12.595l12.333 14.432h54.453V87.654l-12.364-14.335h-.101V62.196l-12.407-14.437h-4.391l-.024-8.769 12.624 14.809h16.663V18.372L714.711 4.543z"/><path fill="#ff0" d="M714.743 104.449V73.218h-16.669v18.636h-12.598V62.726h16.796V47.759h-16.796V18.63h12.598v20.732h16.669V4.57h-55.501v14.06h5.505v73.224h-4.458v12.595"/><path fill="none" stroke="#000" stroke-width="4.416" stroke-miterlimit="8" d="M714.743 104.449V73.218h-16.669v18.636h-12.598V62.726h16.796V47.759h-16.796V18.63h12.598v20.732h16.669V4.57h-55.501v14.06h5.505v73.224h-4.458v12.595h54.454z"/><path d="M583.91 4.543h51.101a8.941 8.941 0 0 1 6.341 2.632l12.399 13.831a8.899 8.899 0 0 1 2.598 6.287v82.662a8.927 8.927 0 0 1-8.926 8.926h-49.781l-7.361-8.609-3.669-1.444-3.744-4.379V91.854h6.298l-.01-67.019-5.235-6.205"/><path d="M583.91 4.543h51.101a8.941 8.941 0 0 1 6.341 2.632l12.399 13.831a8.899 8.899 0 0 1 2.598 6.287v82.662a8.927 8.927 0 0 1-8.926 8.926h-49.781l-7.361-8.609-3.669-1.444-3.744-4.379V91.854h6.298l-.01-67.019-5.235-6.205-.011-14.087z" fill="none" stroke="#000" stroke-width="7.404" stroke-miterlimit="20"/><path d="M644.016 13.496a8.924 8.924 0 0 0-8.927-8.926h-51.17v14.06h5.245v73.224h-6.298v12.596h52.223a8.927 8.927 0 0 0 8.927-8.926" fill="#ff0"/><path d="M644.016 13.496a8.924 8.924 0 0 0-8.927-8.926h-51.17v14.06h5.245v73.224h-6.298v12.596h52.223a8.927 8.927 0 0 0 8.927-8.926V13.496z" fill="none" stroke="#000" stroke-width="4.416" stroke-miterlimit="8"/><path d="M609.894 91.854h8.846c.609 0 4.283-2.941 4.283-6.569v-60.09c0-3.628-3.674-6.569-4.283-6.569l-8.846.005"/><path d="M609.894 91.854h8.846c.609 0 4.283-2.941 4.283-6.569v-60.09c0-3.628-3.674-6.569-4.283-6.569l-8.846.005v73.223z" fill="none" stroke="#000" stroke-width="4.416" stroke-miterlimit="8"/><path d="M722.377 4.543l-.029 34.819 12.336 14.437 11.313-.028v-.031l-.028 38.114h-7.092v12.595l12.333 14.432h35.697v-12.596l-7.825-9.149h-.047l-.024-55.036L789 53.799h14.702V18.372l-12.33-13.829"/><path fill="none" stroke="#000" stroke-width="7.404" stroke-miterlimit="20" d="M722.377 4.543l-.029 34.819 12.336 14.437 11.313-.028v-.031l-.028 38.114h-7.092v12.595l12.333 14.432h35.697v-12.596l-7.825-9.149h-.047l-.024-55.036L789 53.799h14.702V18.372l-12.33-13.829h-68.995z"/><path fill="#ff0" d="M791.372 4.57v34.792h-14.703V18.63h-9.973v73.224h7.874v12.595h-35.693V91.854h7.092V18.63h-9.57v20.732h-14.051V4.57"/><path fill="none" stroke="#000" stroke-width="4.416" stroke-miterlimit="8" d="M791.372 4.57v34.792h-14.703V18.63h-9.973v73.224h7.874v12.595h-35.693V91.854h7.092V18.63h-9.57v20.732h-14.051V4.57h69.024z"/></svg>