<svg xmlns="http://www.w3.org/2000/svg" viewBox="0 0 868 135.5"><g fill="#fb6155"><path d="M0 135.5L29.9 0h75.3c27.4 0 39.2 17.5 39.2 33.7 0 17.3-14.4 33.1-30.5 34.5 13.2 3.7 19.3 15.4 19.3 26.8 0 17.9-12.4 40.4-48.1 40.4H0zm92.4-43.7c0-4.5-3-7.7-7.7-7.7H52.4l-3.9 17.3h32.3c6.9-.1 11.6-3.9 11.6-9.6zm8.3-51c0-3.7-2.4-6.7-7.3-6.7H63.8L59.9 50h30.9c7.7 0 9.9-4.9 9.9-9.2zM211.2 135.5l-9.3-42.6h-16.5l-9.3 42.6h-41L164.9 0h65.8c24.6 0 45.5 16 45.5 41 0 24-15.6 42.4-33.3 48.7l13.4 45.7h-45.1zm7.1-78.4c8.9 0 15.4-3.9 15.4-11.6 0-5.7-5.1-9.7-11.4-9.7H198l-4.7 21.3h25zM269.3 135.5L299.2 0H402l-8 35.7h-61.7l-2.8 13.4h60.3l-7.9 35.7h-60.3l-3.2 14.8H380l-7.9 35.7H269.3zM486 135.5l-1.4-15.8h-48.7l-8.3 15.8H379L458.8 0h51.6l20.1 135.5H486zm-8.3-95.3l-22.9 43.7h26.8l-3.9-43.7zM618.8 135.5l-20.9-48.9L587.1 98l-8.3 37.6h-41L567.6 0h41L598 47.9 642.2 0h52.2l-65 63 37.4 72.5h-48zM674.1 135.5L703.9 0h41L715 135.5h-40.9zM761 135.5l21.9-99.7h-36.4l8-35.8H868l-7.9 35.7h-36.2L802 135.5h-41z"/></g></svg>