<svg xmlns="http://www.w3.org/2000/svg" viewBox="0 0 160 25"><g fill="#23507d"><path d="M0 1.3h5.4c5.9 0 7.9.9 7.9 7.7v8c0 4.3-1.3 6.8-7.9 6.8H0V1.3m5.2 19.2c2.6 0 2.8-1 2.8-3.1V8.1c0-3-.1-3.7-2.8-3.7v16.1M24.5 1.3l2.9 22.5h-5.2l-.6-5.5h-2.8l-.9 5.5h-4.4l3.8-22.5h7.2m-3.3 13.5l-.9-10h-.1l-.9 10h1.9M38.1 22.6c-.6.6-1.3 1-2.1 1.3-.8.2-1.6.3-2.4.3-3.4 0-5.4-1.4-5.4-6.6V7.4c0-5.1 3.2-6.6 6.6-6.6 4.2 0 6.7 1.7 6.7 6.1v2.4h-5.2V6.2c0-.9-.3-1.8-1.4-1.8-1.1 0-1.4.9-1.4 1.8v12.6c0 .9.3 1.8 1.4 1.8 1.1 0 1.4-.9 1.4-1.8v-3h-2v-3.4h7.2v11.3h-3.1l-.3-1.1M42.7 23.7V1.3h10.9v3.4H48v4.9h5.4V13H48v7.3h5.6v3.4H42.7M54.5 1.3h7.3l3.3 16.4h.1V1.3h4.1v22.5h-6.7L58.7 5h-.1v18.8h-4.1V1.3zM78.7 9.3V6.2c0-1.1-.3-1.7-1.4-1.7-1.1 0-1.4.6-1.4 1.7 0 3.8 8 4.9 8 11.8 0 4.2-2.3 6.2-6.7 6.2-3.3 0-6.6-1.1-6.6-5V15h5.2v3.9c0 1.3.4 1.7 1.4 1.7.9 0 1.4-.4 1.4-1.7 0-5.1-8-5.2-8-12.4 0-4.1 2.7-5.6 6.7-5.6 3.5 0 6.5 1.2 6.5 5v3.5l-5.1-.1M96.8 23.7h-4.2V1.3h7.7l2.2 16h.1l2.2-16h7.5v22.5h-4.7V4.5h-.1l-3 19.2h-4.6l-3-19.2h-.1v19.2M113.5 23.7V1.3h10.9v3.4h-5.6v4.9h5.4V13h-5.4v7.3h5.6v3.4h-10.9M125.5 1.3h5.4c5.9 0 7.9.9 7.9 7.7v8c0 4.3-1.3 6.8-7.9 6.8h-5.4V1.3m5.3 19.2c2.6 0 2.8-1 2.8-3.1V8.1c0-3-.1-3.7-2.8-3.7v16.1M140 23.7V1.3h5.2v22.5l-5.2-.1M157.1 1.3l2.9 22.5h-5.2l-.6-5.5h-2.8l-.9 5.5h-4.4l3.8-22.5h7.2m-3.3 13.5l-.9-10h-.1l-.9 10h1.9"/></g></svg>