<svg xmlns="http://www.w3.org/2000/svg" width="888.75" height="81.25"><defs><clipPath id="a"><path d="M0 0h711v65H0V0z"/></clipPath><clipPath id="b"><path d="M.06 64.849h710.067V.06H.06v64.789z"/></clipPath><clipPath id="c"><path d="M0 0h711v65H0V0z"/></clipPath><clipPath id="d"><path d="M0 0h711v65H0V0z"/></clipPath><clipPath id="e"><path d="M.06 64.849h710.067V.06H.06v64.789z"/></clipPath><clipPath id="f"><path d="M0 0h711v65H0V0z"/></clipPath><clipPath id="g"><path d="M0 0h711v65H0V0z"/></clipPath></defs><g clip-path="url(#a)" transform="matrix(1.25 0 0 -1.25 0 81.25)"><path d="M504.172 33.875h2.301c1.643 0 3.602 1.183 5.722 5.391l3.192 5.68h1.078V20.69h-1.078l-3.192 5.68c-2.12 4.209-4.079 5.392-5.722 5.392h-2.301V2.861h6.614c1.642 0 2.606 1.182 4.726 5.391l10.697 18.533h1.079V.748h-47.02v1.243h1.575c1.625 0 3.048.595 3.048 6.406v48.054c0 5.813-1.423 6.406-3.048 6.406h-1.575v1.245h47.02V38.505h-1.079L515.512 57.04c-2.12 4.207-3.084 4.947-4.726 4.947h-6.614V33.875" fill="#231f20"/></g><g clip-path="url(#b)" transform="matrix(1.25 0 0 -1.25 0 81.25)"><g clip-path="url(#c)" fill="#231f20"><path d="M606.881 33.875h2.301c1.643 0 3.603 1.183 5.722 5.391l3.193 5.68h1.078V20.69h-1.078l-3.193 5.68c-2.119 4.209-4.079 5.392-5.722 5.392h-2.301V2.861h6.614c1.642 0 2.606 1.182 4.726 5.391l10.698 18.533h1.079V.748h-47.021v1.243h1.576c1.624 0 3.047.595 3.047 6.406v48.054c0 5.813-1.423 6.406-3.047 6.406h-.803v1.245h46.248V38.505h-1.079L618.221 57.04c-2.12 4.207-3.084 4.947-4.726 4.947h-6.614V33.875m53.174-3.317h-4.073v2.113h4.073c3.537 0 4.645 1.584 4.645 5.682v17.955c0 4.095-1.008 5.679-5.242 5.679h-1.893V8.397c0-5.811 1.423-6.406 3.047-6.406h1.576V.748h-28.526v1.243h1.574c1.625 0 3.049.595 3.049 6.406v48.054c0 5.813-1.424 6.406-3.049 6.406h-1.574v1.245h29.672c15.064 0 22.462-7.124 22.462-16.921 0-7.75-4.774-13.851-15.567-14.996v-.149c12.545-.403 15.567-6.388 15.567-15.112V8.12c0-1.235.445-1.769 1.357-1.769 1.519 0 2.732 2.427 3.607 6.278l1.815-.652C691.084 4.151 686.816 0 677.929 0 668.613 0 664.7 4.42 664.7 13.014v11.863c0 4.096-1.108 5.681-4.645 5.681M117.953 56.225c0 4.448 1.825 6.508 5.639 6.508 7.878 0 14.015-5.348 20.4-21.768h.996v23.552h-.996l-5.836-7.579c-4.281 5.298-8.766 7.911-15.559 7.911-15.313 0-26.039-12.689-26.039-32.425 0-19.736 11.057-32.422 26.371-32.422 6.479 0 11.804 3.265 16.176 7.379l6.422-7.049h.995v25.873c0 5.812 1.424 6.405 3.047 6.405h1.576v1.245h-27.864V32.61h1.576c1.624 0 3.048-.593 3.048-6.405V7.795c0-3.897-1.493-6.012-4.976-6.012-3.483 0-4.976 2.115-4.976 6.012v48.43m-113.329.226c0 5.813-1.424 6.406-3.048 6.406H0v1.245h27.885c15.313 0 26.039-11.942 26.039-31.678S43.198.748 27.885.748H0v1.243h1.576c1.624 0 3.048.595 3.048 6.406v48.054zm19.28-53.59h3.981c3.04 0 4.644 1.783 4.644 5.68v47.767c0 3.896-1.604 5.679-4.644 5.679h-3.981V2.861"/><path d="M174.701 33.875h2.302c1.643 0 3.602 1.183 5.721 5.391l3.193 5.68h1.078V20.69h-1.078l-3.193 5.68c-2.119 4.209-4.078 5.392-5.721 5.392h-2.302V2.861h6.614c1.643 0 2.606 1.182 4.726 5.391l10.698 18.533h1.078V.748h-47.019v1.243h1.575c1.624 0 3.048.595 3.048 6.406v48.054c0 5.813-1.424 6.406-3.048 6.406h-1.575v1.245h47.019V38.505h-1.078L186.041 57.04c-2.12 4.207-3.083 4.947-4.726 4.947h-6.614V33.875m99.806 28.9c-4.55 0-6.447-2.784-6.447-6.547 0-12.462 30.33-16.791 30.33-37.57 0-11.111-10.352-18.656-20.358-18.656-6.303 0-12.481 3.067-16.596 8.695L255.268.332h-.995v23.551h.995c7.338-16.75 14.058-21.934 22.391-21.934 4.422 0 6.758 2.129 6.758 6.137 0 13.433-30.31 18.201-30.31 37.109 0 11.996 9.288 19.654 18.41 19.654 6.461 0 10.034-2.531 14.564-7.246l5.836 6.914h.995V41.629h-.995c-4.213 13.599-12.151 21.146-18.41 21.146"/></g></g><g clip-path="url(#d)" fill="#231f20" transform="matrix(1.25 0 0 -1.25 0 81.25)"><path d="M223.944 64.102l21.872-41.442v33.681c0 4.042-1.276 6.516-3.932 6.516h-1.134v1.245h12.329v-1.245h-1.133c-2.656 0-3.932-2.474-3.932-6.516V.748h-13.29l-25.852 48.904V8.508c0-4.043 1.276-6.517 3.932-6.517h1.134V.748h-12.329v1.243h1.134c2.655 0 3.931 2.474 3.931 6.517V58.11c0 4.042-.981 4.747-3.047 4.747h-1.907v1.245h22.224M58.346 17.154L55.501 6.738c-1.102-4.042-.313-4.747 1.753-4.747h1.014V.748H48.151v1.243h.81c2.066 0 3.24.705 4.343 4.747l15.651 57.364h11.83l15.66-57.364c1.103-4.042 2.277-4.747 4.343-4.747h.81V.748H72.574v1.243h1.346c2.066 0 2.855.705 1.752 4.747l-2.84 10.416H58.346zm13.903 2.126l-6.667 24.433-6.659-24.433h13.326m381.635 12.482V8.397c0-5.811-1.424-6.406-3.048-6.406h-1.132V.748h28.085v1.243h-1.577c-1.624 0-3.047.595-3.047 6.406v48.054c0 5.813 1.423 6.406 3.047 6.406h1.577v1.245h-28.085v-1.245h1.132c1.624 0 3.048-.593 3.048-6.406V33.875h-10.94v22.576c0 5.813 1.425 6.406 3.049 6.406h1.132v1.245h-28.083v-1.245h1.574c1.625 0 3.049-.593 3.049-6.406V8.397c0-5.811-1.424-6.406-3.049-6.406h-1.574V.748h28.083v1.243h-1.132c-1.624 0-3.049.595-3.049 6.406v23.365h10.94m-116.345 32.34l21.872-41.442v33.681c0 4.042-1.277 6.516-3.933 6.516h-1.133v1.245h12.329v-1.245h-1.133c-2.657 0-3.933-2.474-3.933-6.516V.748h-13.289l-25.852 48.904V8.508c0-4.043 1.276-6.517 3.931-6.517h1.134V.748h-12.329v1.243h1.134c2.656 0 3.932 2.474 3.932 6.517V58.11c0 4.042-.982 4.747-3.048 4.747h-1.907v1.245h22.225"/></g><g clip-path="url(#e)" transform="matrix(1.25 0 0 -1.25 0 81.25)"><g clip-path="url(#f)" fill="#231f20"><path d="M401.625 36.332l-8.232 21.778c-1.538 4.042-.825 4.747 1.241 4.747h1.284v1.245h-30.216v-1.245h.808c2.067 0 3.336-.705 4.986-4.747l11.927-29.25V8.397c0-5.811-1.423-6.406-3.047-6.406H378.8V.748h28.528v1.243h-1.577c-1.624 0-3.046.595-3.046 6.406v25.046l8.7 23.81c1.512 4.142 2.708 5.604 5.904 5.604h.52v1.245h-12.418v-1.245h.71c3.357 0 4.288-2.424 2.521-7.262l-7.017-19.263M702.472 0c4.228 0 7.655 3.153 7.655 8.809 0 5.656-3.427 8.808-7.655 8.808-4.227 0-7.655-3.152-7.655-8.808S698.245 0 702.472 0"/></g></g><g clip-path="url(#g)" transform="matrix(1.25 0 0 -1.25 0 81.25)"><path d="M581.522 64.102V38.505h-1.079l-9.564 18.535c-2.25 4.359-2.719 4.947-4.093 4.947h-.811V8.397c0-5.811 1.424-6.406 3.048-6.406h1.576V.748h-28.528v1.243h1.576c1.624 0 3.048.595 3.048 6.406v53.59h-.81c-1.374 0-1.844-.588-4.094-4.947l-9.565-18.535h-1.078v25.597h50.374" fill="#231f20"/></g></svg>