<svg xmlns="http://www.w3.org/2000/svg" viewBox="0 0 126 126"><path fill="#f4000e" d="M0 0h126v126H0z"/><path d="M58.5 62.8C58.5 48 50.4 39 38.9 39H18v.9h1.2c1.2 0 2.3.4 2.3 4.8v36.1c0 4.3-1.1 4.8-2.3 4.8H18v.9h20.9c11.5.1 19.6-8.9 19.6-23.7zM35.9 40.5h3c2.2 0 3.5 1.3 3.5 4.2v35.9c0 2.9-1.2 4.2-3.5 4.2h-3V40.5zm31.8 45.1h-.8c-2 0-2.9-1.8-2.9-4.9v-31l19.4 36.7h10V44.8c0-3 1-4.9 2.9-4.9h.1V39h-8.5v.9h.8c2 0 2.9 1.8 2.9 4.9v25.3L75.3 38.9H58.5v.9H60c1.6 0 2.3.5 2.3 3.6v37.3c0 3-1 4.9-2.9 4.9h-.8v.9h9.2l-.1-.9zm34.5-11.7c-3.2 0-5.7 2.3-5.7 6.6 0 3.9 2.2 6.2 5.1 6.6h1.4c2.8-.3 5.1-2.7 5.1-6.6-.2-4.3-2.8-6.6-5.9-6.6z" fill="#fff"/></svg>