<svg id="Layer_1" xmlns="http://www.w3.org/2000/svg" viewBox="0 0 256 256"><style>.st1{fill:#095ab4}.st2{fill:#fff}</style><path d="M128 0C57.3 0 0 57.3 0 128s57.3 128 128 128c5.4 0 10.7-.3 16-1L38.7 176.7l.3-2.1v-89h31.4c14 0 25 3.6 33 9.8h.1l28.9 24.1V85.6h22l1.1 1.6 32.5 27V85.6h21V87l47 43.5V128C256 57.3 198.7 0 128 0z" fill="#1374dd"/><path class="st1" d="M209 177h-19.6l-36-54.7V177h-21v-57.4l-28.9-24.1h-.1c10.2 8 15.5 20.5 15.5 35.7 0 27.1-16.9 45.8-47.8 45.8H39v-2.3l-.3 2.1L144 255c62.3-7.8 110.8-60.3 112-124.5L209 87v90z"/><path class="st1" d="M187.9 114.3l-32.5-27 32.5 49.4zM96.1 131.3c0-19.2-10.7-28.1-26.2-28.1h-8.2v56.1h8.2c16.1 0 26.2-8.4 26.2-28z"/><path class="st2" d="M153.4 177v-54.7l36 54.7H209V85.6h-21.1V136.7l-32.5-49.4-1.1-1.7h-22V177zM71.1 177c30.8 0 47.8-18.7 47.8-45.8 0-15.2-5.2-27.7-15.5-35.7-8-6.3-19-9.8-33-9.8H39V177h32.1zm-9.4-73.8h8.2c15.5 0 26.2 8.9 26.2 28.1 0 19.6-10.1 28.1-26.2 28.1h-8.2v-56.2z"/></svg>