<svg id="Layer_1" xmlns="http://www.w3.org/2000/svg" viewBox="0 0 126 126"><style>.st1{fill:#fff}</style><path fill="#a7100c" d="M0 0h126v126H0z" id="Layer_2"/><g id="Layer_1_1_"><g id="Page-1"><g id="Group"><path id="I" class="st1" d="M104.8 90.9h3.2v12.9H82.1V90.9h3.2V58.3h-3.2V45.6h22.7v45.3zm1.2-59.5c0 5.8-4.5 9.4-11.8 9.4-7.3 0-12-3.7-12-9.2 0-5.8 4.5-9.4 12.2-9.4 7.1-.2 11.6 3.6 11.6 9.2z"/><path id="D" class="st1" d="M23.2 36.7H18V23.8h32.1c7.6 0 13.8 2 17.8 5.7 6.5 5.8 10 17.6 10 34.1 0 20-4.8 32.5-13.8 36.8-4 2-11.6 3.2-18.8 3.2H18V90.8h5.1l.1-54.1zm22 54.2c8.9 0 10.7-4.9 10.7-29.8 0-12.7-.9-19.4-3.3-21.9-1.4-2-3.8-2.5-9.6-2.3v54.2l2.2-.2z"/></g></g></g></svg>