<svg id="Layer_1" xmlns="http://www.w3.org/2000/svg" viewBox="0 0 60 55.4"><style>.st1{fill:#fff}</style><path d="M0 0h60v55.4H0V0z" fill="#a7100c"/><g id="Page-1"><g id="Group"><path id="I" class="st1" d="M53.1 42.9h1.8V50H40.6v-7.1h1.8v-18h-1.8v-7h12.5v25zm.7-32.8c0 3.2-2.5 5.2-6.5 5.2s-6.6-2-6.6-5.1C40.7 7 43.2 5 47.4 5c3.9-.1 6.4 2 6.4 5.1z"/><path id="D" class="st1" d="M8.2 13H5.3V5.9H23c4.2 0 7.6 1.1 9.8 3.1 3.6 3.2 5.5 9.7 5.5 18.8 0 11-2.6 17.9-7.6 20.3-2.2 1.1-6.4 1.8-10.4 1.8h-15v-7.1h2.8L8.2 13zm12.1 29.9c4.9 0 5.9-2.7 5.9-16.4 0-7-.5-10.7-1.8-12.1-.8-1.1-2.1-1.4-5.3-1.3V43l1.2-.1z"/></g></g></svg>