<svg id="Layer_1" xmlns="http://www.w3.org/2000/svg" viewBox="0 0 50 46"><style>.st1{fill:#fff}</style><path fill="#a7100c" d="M-5.1-4.7h60v55.4h-60z"/><g id="Page-1"><g id="Group"><path id="I" class="st1" d="M48 38.2h1.8v7.1H35.5v-7.1h1.8v-18h-1.8v-7H48v25zm.7-32.8c0 3.2-2.5 5.2-6.5 5.2s-6.6-2-6.6-5.1c0-3.2 2.5-5.2 6.7-5.2 3.9-.1 6.4 2 6.4 5.1z"/><path id="D" class="st1" d="M3.1 8.3H.2V1.2h17.7c4.2 0 7.6 1.1 9.8 3.1 3.6 3.2 5.5 9.7 5.5 18.8 0 11-2.6 17.9-7.6 20.3-2.2 1.1-6.4 1.8-10.4 1.8H.2v-7.1H3l.1-29.8zm12.1 29.9c4.9 0 5.9-2.7 5.9-16.4 0-7-.5-10.7-1.8-12.1-.8-1.1-2.1-1.4-5.3-1.3v29.9h1.2v-.1z"/></g></g></svg>