<svg xmlns="http://www.w3.org/2000/svg" version="1" width="800" height="122.023"><path d="M129.976 120.393l.539-3.945h2.852c7.313 0 6.066-3.934 5.181-6.81l-6.963-30.089-21.427 30.089c-2.852 5.197-2.852 6.81 2.317 6.81h2.683l-.539 3.945H91.602l.885-3.945h5.165c3.045 0 5.72-3.934 7.872-6.81l24.452-36.195-14.818-60.368c-.539-3.044-2.132-6.979-8.926-6.979h-2.86l.539-4.484h54.278l-.539 4.484H153c-4.457 0-3.926 3.934-3.198 6.979l5.696 23.308 16.966-25.097c1.601-1.255 2.683-5.189-1.79-5.189h-2.144l.535-4.484h23.024l-1.066 4.484h-4.107c-5.527 0-6.597 3.041-8.379 5.732L157.65 42.111l15.876 67.527c1.074 3.399 2.86 6.81 7.864 6.81h2.313l-.7 3.945h-53.027m340.059-8.965l3.383-23.469h3.938c1.074 23.469 9.122 27.95 15.342 28.489 6.798.724 13.583-2.329 17.489-7.879 4.48-6.278 5.728-13.076 2.691-18.087l-28.736-50.167c-3.927-6.628-5.173-24.547 7.32-31.879C499.495 3.938 506.804 0 518.066 0c16.411 0 23.201 2.683 31.226 13.076l-3.383 22.395h-3.926l-.716-13.261c-1.79-11.463-8.941-19.527-18.036-18.811-3.918.539-7.317 2.698-10.354 6.632-1.598 3.044-3.938 7.525.708 15.413l24.813 41.56c4.111 6.439 4.481 11.447 4.481 17.025 0 17.014-20.369 37.607-46.97 37.977-12.306-.37-17.479-3.949-25.874-10.578M242.902 65.387c2.848 0 5.712-1.066 6.243-5.012.547-2.329 5-38.166 6.79-47.3 0-5.188-2.868-6.979-7.321-6.979h-6.263l-7.848 59.29h8.399m-50.879 47.128l13.745-100.685c.354-2.691-5.181-5.732-6.959-5.732h-3.934l.543-4.484h54.274c17.659 1.07 35.86 4.484 35.333 32.072-.708 17.013-15.168 27.769-22.12 31.179-5.358 2.855-13.213 5.185-20.003 5.185h-8.93l-5.712 40.132c-.716 3.407 1.074 6.267 5.712 6.267h5.712l-1.247 3.945h-54.809l.551-3.945c4.992-.539 7.844-1.074 7.844-3.934zm560.315 7.879l-26.619-97.278-12.479 88.313c-.523 3.407.708 5.02 3.398 5.02h6.259l-1.085 3.945h-24.283v-3.945h5.711c4.473 0 4.473-3.411 4.473-5.02l14.1-99.599c.53-3.942-1.082-5.732-11.786-5.732l.523-4.484h43.043l21.585 78.475 9.649-68.259c0-3.942-1.786-5.732-9.649-5.732l.539-4.484H800l-.551 4.484h-3.383c-3.923 0-5.704 1.79-6.251 5.732l-15.873 108.564h-21.604M54.786 59.125h16.435c4.638 0 9.103-1.078 9.457-7.895l1.247-6.975h3.934l-5.181 34.196h-3.206l1.054-7.498c.731-4.481-2.667-7.887-6.589-7.887H54.786l-7.309 53.381h24.46c4.819-1.074 12.309-5.728 16.42-28.489h3.93l-4.469 32.434H0l1.066-3.945h5.181c4.461 0 6.605-2.86 6.605-3.934L27.119 10.031c0-3.934-2.305-3.934-11.778-3.934l.547-4.484h84.962l-3.375 23.831h-3.938V22.21c0-6.975-.535-16.113-7.147-16.113H62.291l-7.505 53.028m606.619 0h15.719c5.169 0 9.095-1.078 10.342-7.895l1.082-6.975h3.93l-5.012 34.196h-3.922l1.07-7.498c.728-4.481-2.321-7.887-6.235-7.887h-17.505l-7.317 53.381h24.291c5.696-1.074 12.286-5.728 16.404-28.489h3.922l-4.988 32.434h-86.582l.535-3.945h5.185c3.91 0 6.601-2.86 7.316-3.934l13.553-102.482c0-3.934-2.313-3.934-11.771-3.934l.378-4.484h84.415l-3.029 23.831h-3.941V22.21c0-6.975-1.07-16.113-6.767-16.113h-24.105l-6.968 53.028" fill="#e10020"/><path d="M543.297 111.428l3.384-23.469h4.126c.354 23.469 8.387 27.95 14.453 28.489 7.316.724 14.275-2.329 18.209-7.879 3.922-6.278 5.169-13.076 2.684-18.087l-29.295-50.167c-3.376-6.628-4.635-24.547 7.34-31.879C572.223 3.938 579.535 0 591.313 0c16.082 0 23.406 2.683 30.712 13.076l-3.214 22.395h-4.092l-.539-13.261c-1.789-11.463-8.402-19.527-17.686-18.811-4.639.539-7.856 2.698-10.342 6.632-1.437 3.044-4.474 7.525 0 15.413l25.691 41.56c3.93 6.439 4.461 11.447 4.461 17.025 0 17.014-21.05 38.685-47.662 37.977-12.324-.37-17.481-3.949-25.345-10.578M283.625 1.625v4.469h4.656c4.996 0 6.07 3.059 5.531 5.75l-13.03 100.125c-.54 1.613-2.144 4.469-6.782 4.469h-5.719l-.531 3.968h57.656l1.281-3.969h-3.937c-5.172 0-7.489-2.332-6.25-6.812l5.688-46.563 7.875 1.25c2.151 0 3.39 3.421 4.468 5.75.712 1.614 9.102 44.763 9.625 46.376 0 1.608 3.914 3.968 7.313 3.968H464.03l5.219-32.437h-3.938c-3.942 22.76-10.902 27.395-15.906 28.469h-24.469l7.5-53.376h16.97c4.105 0 6.78 3.394 6.25 7.876l-.72 7.5h3.563l5.031-34.188h-3.969l-1.062 6.969c-1.062 6.817-4.987 7.906-10.156 7.906h-15.906l6.78-53.031h24.313c6.236 0 6.938 9.15 6.938 16.125v3.218h3.937l3.188-23.812h-84.219l-1.25 4.469c10.334 0 11.75.003 11.75 3.937L390.344 112.5c0 .926-2.012 3.719-5.531 4.125l-3.875-.188c-3.923 0-6.77-6.805-7.313-7.874 0-2.33-3.94-24.547-6.969-33.5-2.137-8.073-13.923-8.594-32.125-12.532 1.782 0 13.546-3.922 15.875-4.468 2.321-.724 23.2-8.599 25.875-30.282 1.79-21.672-19.092-26.156-37.844-26.156h-54.812zm46.969 4.469c6.78 0 13.554.018 13.031 5.75l-5.719 42.093c-.543 4.666-3.378 5.188-5.687 5.188h-8.938l7.313-53.031z" fill="#e10020"/></svg>