<svg id="Layer_1" xmlns="http://www.w3.org/2000/svg" viewBox="0 0 126 126"><style>.st0{fill:#fff}.st1{fill:#fff200}.st3{fill:#ed1c24}</style><path class="st0" d="M0 0h126v126H0z"/><g id="Layer_1_1_"><path class="st1" d="M73.5 85.4h-.4c-1 0-2.3-.6-3-1.8-.9.9-1.9 2-3 3.1l.1.1c.6 1 2.1 1.4 3.1 1h.1c1.1-.8 2.2-1.7 3.1-2.4z"/><path d="M71.5 66.7c-.1 0-.2 0-.3-.1-.4-.1-.6-.2-1-.3.4.6 1.4 1.4 2.1 2.1l.1-.4c.1-.6.1-.8.2-1.1-.4 0-.8-.1-1.1-.2zm-9.1-2.4c0 .1-.1.3-.1.6l2.1-.4c-.2-.1-.4-.3-.6-.4-1.5-1.1-1.4-.4-1.4.2z" fill="none"/><path class="st1" d="M79.7 77.8c-.4 0-.6-.1-.8-.1h-.1c-1.1-.3-2-.7-2.8-1.6-.6 1.1-1.4 2.1-2.3 3.3 1.1 1.8 3 2.3 5.1 1.7 1.1-1 2.6-2.3 4.3-3.8-1.3.5-2.4.6-3.4.5zM62.4 62c.6-.4 1.4-1.4 2.1-2.5-.1 0-.6-.2-1.3-.4-.6.7-1.1 1.6-1.8 2.3.1.1 1 .6 1 .6zm9.9-1.5c-1.4 2.3-3.1 4-3.6 4.4 1.8 1 3.6 1.4 5.1.6 1.1-.6 3.1-2.5 4.5-4.7h-.7c-1.9-.1-3.7-.2-5.3-.3zm4.4 7.9c.4 1.1.6 2.1.6 3.1 3.3.9 10.8-1.9 13.5-6.1.2-1.7-.6-3.3-2.5-4.4l-.4-.1.1.1c-.9 1.6-6 5.9-11.3 7.4z"/><path d="M90.9 65.4c-2.6 4.3-10.3 7-13.5 6.1v1.2c0 .1-.1.3-.1.4l-.1.1v.1c-.1.2-.1.4-.2.6 0 .1 0 .1-.1.2s-.1.3-.2.4v.1l-.2.4c0 .1-.1.1-.1.2s-.1.1-.1.2-.1.2-.1.2v-.1c0 .1-.1.1-.1.2-.1.1-.2.3-.3.4.8.7 1.8 1.3 2.8 1.6h.1c.3.1.6.1.7.1h.1c1 .1 2.1-.1 3.3-.6l1.3-1.3.1-.1.1-.1.3-.3.3-.3.1-.1c.6-.6 1.4-1.4 1.9-2.1.1-.2.3-.3.4-.4v-.1c.1-.2.2-.3.4-.4l.1-.1c.1-.2.3-.3.4-.4.1-.2.3-.3.4-.4l.1-.2c.1-.1.1-.2.2-.3l.2-.3c0-.1.1-.1.1-.2.1-.1.2-.2.2-.4l.1-.1v-.3l.1-.2c.1-.1.1-.2.2-.3-.1.1-.1.2-.2.3.9-1.6 1.6-2.9 1.6-4.3-.3.8-.3.8-.3.6zM73.6 79.3c-.4.4-.6.9-1 1.4l-.2.2c-.1.1-.2.3-.3.4-.4.4-.7.9-1.3 1.6-.3.4-.6.6-.9 1 .7 1.3 2 1.7 3 1.8h.4c1-.7 1.7-1.4 2.3-1.9.4-.4.7-.6.8-.6.1-.1.3-.3.6-.4.4-.3.6-.6 1.1-1l.1-.1.3-.3c-1.9.2-3.6-.1-4.9-2.1zm-3.3 8.6c-1 .3-2.6 0-3.1-1 0 0 0-.1-.1-.1l-.7.7-.6.5-.1.1-.2.1-.4.4c-3.7 3.5-7.7 7.1-9.8 8.9l-.3.3-.3.2v.1c-.1 0-.1.1-.1.1l-.1.1-.1.1-.1.1-.1.1-.1.1H54l-.1.1c.4-.2.6-.4 1-.6 0 0 .1 0 .1-.1.4-.2.6-.4.9-.6 0 0 .1 0 .1-.1.4-.2.6-.4 1-.6.4-.3.7-.4 1.1-.6.4-.2.6-.4 1-.6h.1l.3-.2h.1l.2-.1.2-.1.1-.1s-.1 0-.1.1c.1-.1.2-.1.4-.2l.1-.1.4-.3.4-.3.1-.1c.2-.1.4-.3.6-.4 2.9-1.9 5.8-4.1 8.3-5.9z"/><path class="st1" d="M65.8 54.1l-.4.4c-.3 1.1-.7 2.4-1.7 4 .6.2 1.6.4 2.1.6l3.7-5.1c.1-.1-3.7.1-3.7.1zM94 35.8l-11.5.6-5.2 7.2c3.7-2.4 7.7-4.3 12.2-5.7 1.4-.4 2.5-.6 3.7-.9l.8-1.2zM64.9 48.6l.1.3v.1c0 .1.1.2.1.3.1.3.2.4.2.6v.1c0 .1.1.2.1.4v.2c0 .1 0 .2.1.3 0 .1 0 .2.1.3v.1c0 .1 0 .3.1.4.1.6.1 1.1.1 1.9l1.1-1.1.1-.1 1-1c.1-.1.2-.2.3-.2.4-.4.6-.6.9-.8.1-.1.2-.2.4-.3.3-.3.6-.6.8-.7.2-.1.3-.3.4-.4.3-.3.6-.4.7-.6.2-.2.4-.4.6-.4.3-.2.4-.4.6-.6.3-.2.6-.4.7-.6.2-.2.4-.3.6-.4.4-.4.8-.6 1.3-.9l-8.3.4c-.2.3-.4.6-.6.7-.1.2-.3.4-.4.6-.2-.3-1.1 1.2-1.1 1.4-.1 0-.1 0 0 0zm34.8-13.3c-.3-2-.9-3.5-1.8-4.7l-3.6 5 5.4-.3zm-11.6-6.8c-4.4 1-9.4 3.8-14 8.1l8.5-.4c-.1 0 5.5-7.7 5.5-7.7z"/><path class="st3" d="M77 43.7l5.3-7.4-8.5.4c-2.5 2.4-5.1 5.4-7.3 8.7l8.4-.4c.8-.6 1.5-1 2.1-1.3zm16.3-6.9c1.1-.2 2.3-.3 3.4-.3s2.1.1 3.1.4c0-.6 0-1-.1-1.6l-5.5.3c.1 0-.9 1.2-.9 1.2zm.8-1.2l3.7-5.1c-.1-.1-.2-.3-.4-.4-1.4-1.6-3.5-2.1-5.8-2.1-1.1 0-2.3.2-3.4.4l-5.5 7.7c0 .1 11.4-.5 11.4-.5zm-6.3 8.7l4.8-6.6c-.9.2-1.8.4-2.8.7-5 1.6-9.2 3.6-13.2 6.5-.1 0 11.2-.6 11.2-.6zm10.9-.4l-11 .6-6.4 8.8 10.9-.6 6.5-8.8zM87.8 59.1c3-.6 5.8-1.3 8.7-2.4 3.1-1.4 5.4-2.9 7-4.5l-11 .6-4.7 6.3zm-11.4.9l4.8-6.7-11.5.6L66 59c.6.1 1.6.3 2.7.4 2.1.2 4.8.5 7.7.6zm-10.5-6.1l3.7-.2 5.6-7.7.6-.6c-3.3 2.4-6.5 5.2-9.9 8.5zm40.5-10.5c-.6-1.9-1.7-3.6-3.8-4.7L99 43.8c0-.1 7.4-.4 7.4-.4z"/><path class="st1" d="M81.4 53.2l-4.8 6.7h1c3.1 0 6.6-.3 10.1-.8l4.7-6.5c-.1 0-11 .6-11 .6zm6.3-8.8l-11.4.6c-.2.1-.4.3-.4.4l-6.1 8.5 11.5-.6 6.4-8.9zm4.9-6.6l-4.8 6.6 11-.6 3.7-5.1c-1.6-.8-3.5-1.4-5.8-1.4-1.2 0-2.6.2-4.1.5zm13.8 5.6l-7.5.4-6.4 8.8 11-.6c2.1-2.3 3.3-4.7 3.3-7-.1-.6-.2-1.1-.4-1.6zM35.7 56.3L28.2 61c2.1.6 4.3.6 6.3.6 2.6 0 5-.4 6.1-.6.1 0 .2-.1.3-.1.1 0 .2-.1.2-.1-.4-.8-.6-1.7-.6-2.8 0 .1-4.8-1.7-4.8-1.7z"/><path class="st3" d="M31.9 38.7l-6.1 4c.1.3.2.6.3.8 1.3-.4 2.6-.6 4.1-.6 2.3 0 4.8.4 7.5 1.4l1.6-1c-.1-.2-.1-.4-.1-.6 0-.4.1-.7.3-1.1-.1.1-7.6-2.9-7.6-2.9zm4.9-3.3c-1.4-.4-2.8-.6-4.1-.6-2.1 0-4 .6-5.2 1.6-.1.1-.3.2-.4.3l4.7 2c.1 0 5-3.3 5-3.3zm12.7 9.7c.4-.1.6-.2 1-.3-.6-.7-1.3-1.4-1.9-2.1l-.2-.2-.6-.5-.3-.3-.4-.4-.4-.4-.4-.4c-.2-.2-.4-.3-.4-.4l-.3-.3c-.3-.2-.6-.4-.7-.6l-1.6 1c2.6.8 4.9 2.7 6.2 4.9zm-2.3 0l.9.4c-1.4-2.4-2.7-4-5.3-3.6.2.3.3.6.3.9 0 .2 0 .4-.1.6l4.2 1.7z"/><path class="st1" d="M39.4 41.7c.3-.4.6-.6 1-.8 1-.4 2.1-.6 3.1-.4l1.6-1.1c-2.7-2.1-5.5-3.5-8.1-4.3l-5 3.3c0 .1 7.4 3.3 7.4 3.3zm-7.7-3.1l-4.6-2c-1.1 1-1.6 2.3-1.6 4 0 .6.1 1.3.3 2l5.9-4zm13.8 6.6c.7.6 1 .9 1 1 .6-.2 1.1-.4 1.6-.6L43 43.5c-.3.8-1 1.4-1.8 1.4-.9 0-1.7-.6-2-1.4l-1.6 1c.3.1.6.3.8.4l.2.1c.3.1.6.2.7.4.1.1.3.1.4.2.2.1.3.2.4.2.3.1.6.3.7.4h.1c.4.2.7.4 1.1.6 1.6-1.7 2.3-2.6 3.5-1.6zm-15.3-1.5c-1.6 0-2.8.2-4.1.6l7 3 3.5-2.3c-2.2-1-4.4-1.3-6.4-1.3zm3 3.6l-7.5 4.8 9.9 4.1 5.1-3.3c0-.1 0-.2.1-.4-1.3-.4-2.1-1.3-2.5-1.7-.2-.3-.1-.6.4-1.3l-5.5-2.2zm-13.8 2.4c-.4.8-.6 1.6-.6 2.5 0 1.1.4 2.4 1.1 3.5l5.6-3.6-6.1-2.4z"/><path class="st3" d="M25.5 52.2L20 55.8c.1.1.1.2.2.3 1.8 2.6 4.8 4.1 8 4.8l7.5-4.8c0 .1-10.2-3.9-10.2-3.9zm7.6-4.9l-7.1-3c-1.6.6-3 1.1-4.1 2.1s-2 2.1-2.5 3.3l6.2 2.5 7.5-4.9zm2.6 8.9l4.6 1.9c-.2-1.4-.1-3.1.4-5.1l-5 3.2zm5.3-9.4c-.1-.1-.1-.1-.2-.1-.2-.1-.4-.2-.6-.4 0 0-.1 0-.1-.1-.2-.1-.4-.2-.4-.3h-.2l-.4-.2h-.2c-.1-.1-.3-.1-.4-.2-.1 0-.2-.1-.2-.1-.1-.1-.3-.1-.4-.2-.1 0-.1-.1-.2-.1-.2-.1-.3-.1-.4-.2h-.1c-.2-.1-.4-.2-.6-.2L33.1 47l5.5 2.3c.4-.6 1.1-1.4 2.3-2.3.2-.1.3-.3.4-.4.1.3-.2.3-.3.2z"/><path class="st0" d="M45.3 58.9v-.6c0-1.6 1.3-3.1 3-3.3h.6c1.4 0 2.5.8 3.1 2-.1-.6-.2-1.4-.4-2-.9-3.3-3.3-5.3-5.6-4.6-2.3.6-3.4 3.8-2.4 7 .6 2 1.8 3.1 3.3 3.7-1-.4-1.4-1.1-1.6-2.2zm13.4-12.5c-2.4-.2-4.5 2.5-4.5 6 .1 1.9.6 3.3 1.6 4.1-.4-.4-.6-1-.6-1.6v-.6c0-1.6 1.3-3.1 3-3.3h.6c1.6 0 3.1 1.3 3.4 2.9v.6c0 .3 0 .6-.1.8.3-.6.6-1.6.6-2.5-.1-3.5-1.6-6.2-4-6.4z"/><path class="st1" d="M51.2 60.6c.6-.6.8-1.4.8-2.1V58c0-.2-.1-.3-.1-.4-.4-1.4-1.6-2.4-3.1-2.4h-.4c-1.6.3-2.8 1.6-2.8 3.1v.4c.2 1.1.9 2.1 2 2.5.4.2.8.3 1.4.3h.6c.1 0 .3-.1.4-.1.2.1.7-.4 1.2-.8zm-2.1-1.4v.2l.2 1.6H49c-1.4.2-2.5-.7-2.8-2.1v-.1c-.2-1.4.7-2.5 2.1-2.8 1.4-.2 2.6.7 2.8 2.1v.6c-.1.6-.4 1.1-.6 1.6l-1.4-1.1zm9.3-8.1h-.6c-1.6.3-2.8 1.6-2.8 3.1v.4c.2.9.6 1.6 1.4 2.1.6.4 1.3.6 1.9.6h.6c.7-.1 1.4-.4 1.8-.8.6-.6 1-1.4 1-2.3v-.4c-.3-1.5-1.7-2.7-3.3-2.7zm1.8 5l-1.5-1.2.2 1.9c-1.4.2-2.6-.7-2.8-2.1-.2-1.4.7-2.5 2.1-2.8 1.4-.2 2.6.7 2.8 2.1 0 .8-.2 1.6-.8 2.1z"/><path d="M104.5 39c-1.1-.9-2.4-1.6-4-2 0-3.3-.9-5.7-2.5-7.4-1.6-1.6-3.8-2.4-6.5-2.4-8.2.1-20 7.6-27.2 20.5-.3-.6-.6-.9-.7-1.1-.6-.4-1.1-.6-.4-2.1.7-1.6.3-1.6-3.5-2.7-3.6-1.1-4.3-.4-4.5.6l-.6 1.6c-.2 0-.6.1-.9.3-.6-2.5-.3-5.5 2.8-6.4v.3c.2 1.1 1.1 1.8 2.3 1.6 1.1-.2 1.9-1.1 1.7-2.3-.2-.9-.8-1.6-1.7-1.6-4.5-.6-7.1 5.8-6.3 8.7-.4.1-.8.2-1.3.4-5.8-7.4-13.1-10.6-18.5-10.6-2.3 0-4.3.6-5.7 1.7-1.4 1.1-2.3 2.8-2.3 4.8 0 1 .2 2 .6 3.1-1.6.6-2.8 1.3-4 2.1-2.1 1.5-3.3 3.9-3.3 6.3 0 1.6.4 3 1.4 4.4 3.3 4.8 9.8 5.8 15 6 1.8 0 3.5-.2 4.7-.4.6-.1 1.1-.2 1.6-.4.3-.1.4-.1.6-.2 2.4 4.8 8 4.8 9.5 4.8 2.1-.1 4 .4 5.8 1.6.1-.6 2.5-3.8 4.5-6l.6-.6c.7-.8 1.4-1.6 1.8-2.3.6.2 1.1.4 1.3.4-.7 1.3-1.6 2.1-2.1 2.5-.7 0-1-.2-1.1 2.9l-1.9.3c-.8 2.4-4.4 8.5-5.5 9.8-.1-1.6-1.3-3.7-1.9.1-.4 2 .7 3.8 2.3 2.7 1.6-1.1 5.5-10.5 5.8-10.9l.9-.2c-.2 2.7-.6 4.1-.6 4.4 0 .4-.6.8-.8.4-.4-.6-1.1.1-.4 1.4.7 1.4 1.4 1.1 1.6-.3.2-.8.6-3.8 1-6.1l2-.4c-.6 3.4-3.3 12.6-3.8 13.6-.2-1.1-1.4-1.6-1.6.8-.2 2.3 1.9 3.7 2.3 2.4.4-1.4 4.3-15 4.8-15.5.3-.2.6-.3.7-.4 0 1.6 0 4-.1 4.5 0 1.1.6 1.7 1.8.4 1.1-1.4.9-2.5-.2-1.6-1.1.8-.8-1.6-.7-2.3.1-.6.4-2.4 1.4-1 1.1 1.4 1.9 2 2.3 2.3-.6.8-4.3 7-5.2 9.6-1 3 .9 3.8 3 2.1 2.1-1.6.6-2.1-.2-1.6-.7.4-1.4.6-.8-1.1.4-1.3 3.1-6.1 4.5-8.5l-.1.9c-.2 1.7-.3 2.8-.2 3.4.2 1.1.8 1.6 2.3-.1.4-.6.1-1-.6-.8-.6.2-.8.2-.6-1.1.2-.8.6-3.8 1.1-5.5.2 0 .3.1.4.1h.1c.1 0 .2.1.3.1h.1c.1 0 .2.1.3.1.1 0 .1 0 .2.1.1 0 .2.1.2.1l.2.1c.1 0 .2.1.2.1l.2.1c.1 0 .1.1.2.1h.1c.1 0 .2.1.2.2l.1.1.3.3c5.3-1.6 10.5-5.8 11.5-7.5l-.1-.1c-.6-.4-1.3-.6-1.8-.7 3.7-.3 7.3-1.1 10.5-2.5 7.4-3.1 10.8-8 10.8-12.3-.8-2.5-1.8-4.6-3.7-6.2zm-58.7 1.2l.3.3c.2.2.4.3.4.4l.4.4.4.4.4.4.3.3.6.6.2.2c.6.6 1.3 1.4 1.9 2.1-.4.1-.6.2-1 .3-1.4-2.4-3.6-4.2-6-4.6l1.6-1c.1-.2.3 0 .5.2zm-2.7 2.5c0-.4-.1-.6-.3-.9 2.5-.4 3.8 1.3 5.3 3.6l-.9-.4-4.3-1.8c.2-.1.2-.3.2-.5zm2-3.1l-1.6 1.1c-1-.2-2.1-.1-3.1.4-.4.2-.7.4-1 .8L32 38.8l5-3.3c2.5.6 5.4 2 8.1 4.1zM39 42.9c0 .2 0 .4.1.6l-1.6 1c-2.6-1-5.1-1.4-7.5-1.4-1.6 0-2.8.2-4.1.6-.1-.4-.2-.6-.3-.8l6.1-4 7.5 3.1c-.1.1-.2.5-.2.9zm-.6 8c.4.6 1.3 1.4 2.4 1.8 0 .1 0 .2-.1.4l-5.1 3.3-9.9-4.1 7.5-4.8 5.5 2.3c-.3.3-.5.8-.3 1.1zm2 7.2l-4.6-1.9 5-3.3c-.4 2-.5 3.9-.4 5.2zm-7.2-11l-7-3c1.3-.4 2.5-.6 4.1-.6 2 0 4.3.4 6.6 1.1l-3.7 2.5zm-5.7-10.8c1.3-1 3.1-1.6 5.2-1.6 1.3 0 2.6.2 4.1.6l-5 3.3-4.6-1.9c.1-.2.3-.4.3-.4zm-.3.3l4.6 2-6.1 3.8c-.2-.6-.3-1.4-.3-1.9.1-1.6.7-2.9 1.8-3.9zm-5.4 9.8c1.1-.9 2.5-1.6 4.1-2.1l7.1 3-7.5 4.8-6.2-2.5c.6-1.2 1.4-2.3 2.5-3.2zm-3 5.8c0-.8.2-1.7.6-2.5l6.1 2.5-5.6 3.6c-.8-1.2-1.1-2.3-1.1-3.6zm1.3 4c-.1-.1-.1-.2-.2-.3l5.6-3.6 9.9 4.1-7.4 4.7c-3.2-.8-6.2-2.2-7.9-4.9zM41 61c-.1 0-.2.1-.2.1-.1 0-.2.1-.3.1-1.1.4-3.5.6-6.1.6-2 0-4.1-.2-6.3-.6l7.5-4.8 4.8 1.9c.1 1 .3 1.9.6 2.7zm.1-13.6c-1.1.9-1.8 1.6-2.3 2.3l-5.5-2.3 3.5-2.3c.2.1.4.2.6.2l.2.1c.1.1.3.1.4.2l.2.1c.1.1.3.1.4.2.1 0 .2.1.2.1.1.1.3.1.4.2l.2.1.4.2.2.1c.2.1.4.2.4.3 0 0 .1 0 .1.1.2.1.4.2.6.4h.1l.6.3c-.4-.6-.7-.4-.7-.3zm1-.8c-.4-.2-.7-.4-1.1-.6h-.1c-.3-.2-.6-.3-.7-.4l-.4-.2c-.2-.1-.3-.1-.4-.2-.3-.1-.6-.3-.7-.4l-.2-.3c-.3-.1-.6-.3-.8-.4l1.6-1c.3.8 1.1 1.4 2 1.4.9 0 1.6-.6 1.8-1.4l5.1 2.1c-.6.2-1.1.4-1.6.6-.1-.1-.3-.4-1-1-1.2-.6-2 .3-3.5 1.8zm1.3 10.9c-.9-3.3.1-6.4 2.4-7 2.3-.6 4.7 1.4 5.6 4.6.2.6.4 1.4.4 2.1-.6-1.3-1.7-2-3.1-2h-.6c-1.7.3-3 1.6-3 3.3v.6c.2.9.6 1.7 1.4 2.3-1.3-.7-2.6-1.9-3.1-3.9zm5.8 4.2h-.6c-.6 0-.9-.1-1.4-.3-1-.4-1.8-1.4-2-2.5v-.4c0-1.6 1.1-3 2.8-3.1h.4c1.6 0 2.8 1 3.1 2.4 0 .1.1.3.1.4v.4c0 .8-.4 1.6-.8 2.1-.3.6-.9.8-1.6 1 .3 0 .1 0 0 0zm.7 1.3c3.5.1 5 .4 7.4-3.3-.6 4.7-1.6 7.7-7.4 3.3zm10.8-6.2c-.6.4-1.1.7-1.8.8h-.6c-.7 0-1.4-.3-1.9-.6-.6-.6-1.1-1.3-1.4-2.1v-.4c0-1.6 1.1-3 2.8-3.1h.6c1.6 0 3 1.1 3.3 2.8v.4c0 .7-.3 1.5-1 2.2zm1.7-4.1c-.1 1-.3 1.9-.6 2.5.1-.3.1-.6.1-.8v-.6c-.3-1.6-1.7-2.9-3.4-2.9h-.6c-1.7.3-3 1.6-3 3.3v.6c.1.6.4 1.1.6 1.6-.9-.8-1.4-2.3-1.6-4.1-.1-3.3 2.1-6.1 4.5-6 2.7.3 4.2 3 4 6.4zm-.1 12.2c.1-.3.1-.4.1-.6.1-.6 0-1.4 1.4-.3.2.2.4.4.6.4 0 .1-2.1.5-2.1.5zm44.1-21.5l-7.5.4 3.7-5.1c2.1 1.1 3.4 2.7 3.8 4.7zm-3.8-4.8l-3.7 5.1-11 .6 4.8-6.6c1.4-.3 2.8-.4 4-.4 2.3 0 4.3.5 5.9 1.3zm-26.7 6.7c.2-.1.4-.3.4-.4l11.4-.6-6.4 8.8-11.5.6 6.1-8.4zm-6.1 8.5L66 54c3.3-3.3 6.5-6.1 9.8-8.5l-.6.6-5.4 7.7zm20-15.3c1-.4 1.9-.6 2.8-.7l-4.8 6.6-11.3.6c4.1-2.9 8.3-5 13.3-6.5zm-12.6 4.9l5.2-7.2 11.6-.5-.8 1.1c-1.1.2-2.4.6-3.7.9-4.6 1.5-8.6 3.3-12.3 5.7zm10.6 1l11-.6-6.4 8.8-10.9.6 6.3-8.8zm12.1-7.6c-1-.2-2-.4-3.1-.4s-2.1.1-3.4.3l.8-1.1 5.5-.3c0 .5.2 1 .2 1.5zm-.2-1.5l-5.5.4 3.6-5c1.1 1.1 1.7 2.6 1.9 4.6zm-8.1-7.2c2.5 0 4.5.7 6 2.1.1.1.2.3.4.4l-3.7 5.1-11.5.6 5.6-7.7c1-.5 2.1-.5 3.2-.5zm-3.5.4l-5.6 7.7-8.5.4c4.7-4.3 9.7-7.1 14.1-8.1zm-14.2 8.2l8.5-.4-5.4 7.4c-.6.4-1.4.9-2 1.4l-8.4.4c2.2-3.5 4.7-6.3 7.3-8.8zm-8.7 11.1c.1 0 .1 0 0 0 .2-.3.4-.6.4-.7l.2-.3c.1-.2.3-.4.4-.6.2-.3.4-.6.6-.7l8.3-.4c-.4.4-.8.6-1.3.9-.2.2-.4.3-.6.4-.3.2-.6.4-.7.6-.3.2-.4.4-.6.6-.2.2-.4.4-.6.4-.3.3-.6.4-.7.6l-.4.4c-.3.3-.6.6-.8.7-.1.1-.3.2-.4.3-.4.3-.6.6-.9.9l-.2.1-1 1-.2.1-1.1 1.1c0-.7 0-1.4-.1-1.9 0-.1 0-.3-.1-.4v-.1c0-.1 0-.2-.1-.3 0-.1 0-.2-.1-.3V50c0-.1-.1-.2-.1-.4v-.1c-.1-.2-.2-.4-.2-.6 0-.1-.1-.2-.1-.3v-.1l-.1-.2v-.1.1c.2.1.4-.3.5-.5zm-1.4 10.7c1-1.6 1.6-2.9 1.7-4l.4-.4 3.7-.2-3.7 5.1c-.7-.1-1.7-.4-2.1-.5zm2.1.5l3.7-5.1 11.5-.6-4.8 6.7c-3-.1-5.7-.3-7.7-.6-1-.1-1.9-.3-2.7-.4zm6.4 9.1l-.1.4c-.7-.6-1.8-1.6-2.1-2.1.4.1.6.2 1 .3l.3.1c.4.1.7.2 1.1.2 0 .3 0 .7-.2 1.1zm1.4-2.7c-1.6.9-3.3.6-5.1-.6.6-.4 2.3-2.1 3.6-4.4 1.6.1 3.4.2 5.3.2h.7c-1.3 2.3-3.3 4.1-4.5 4.8zm3.8-5.4h-1l4.8-6.7 10.9-.6-4.7 6.5c-3.4.5-6.8.8-10 .8zm18.8-3.2c-2.7 1.1-5.7 1.9-8.7 2.4l4.7-6.5 11-.6c-1.6 1.7-3.9 3.3-7 4.7zm7.1-4.8l-11 .6 6.4-8.8 7.5-.4c.1.6.2 1.1.2 1.6.2 2.3-.8 4.8-3.1 7zm-52.2 6.2c-.2-1.4-1.6-2.3-2.8-2.1-1.4.2-2.3 1.4-2.1 2.8v.1c.3 1.4 1.6 2.3 2.8 2.1h.3l-.2-1.6v-.2l1.6 1.1c.4-.4.6-.9.6-1.6-.1-.3-.2-.5-.2-.6zm6.9-6.4c-1.4.2-2.3 1.4-2.1 2.8.2 1.4 1.6 2.3 2.8 2.1l-.2-1.8 1.6 1.3c.6-.6.8-1.4.7-2.1-.1-1.4-1.5-2.3-2.8-2.3z"/><path class="st0" d="M49.9 63c5.8 4.5 6.8 1.4 7.4-3.3-2.3 3.8-3.9 3.3-7.4 3.3z"/></g></svg>