<svg id="Layer_1" xmlns="http://www.w3.org/2000/svg" viewBox="0 0 126 126"><style>.st0{fill:#fff200}.st2{fill:#ed1c24}.st3{fill:#fff}</style><g id="Layer_1_1_"><path class="st0" d="M77.8 94.5h-.5c-1.4 0-3.2-.8-4.2-2.5-1.3 1.3-2.7 2.8-4.2 4.3l.1.1c.8 1.4 3 1.9 4.4 1.4h.1c1.6-1.1 3.1-2.3 4.3-3.3z"/><path d="M75 68.3c-.1 0-.3 0-.4-.1-.5-.1-.8-.3-1.4-.4.5.8 2 2 3 2.9l.1-.6c.1-.8.1-1.1.3-1.6-.6.1-1.1-.1-1.6-.2zm-12.8-3.4c0 .1-.1.4-.1.8l2.9-.5c-.3-.1-.5-.4-.8-.6-2.1-1.6-1.9-.5-2 .3z" fill="none"/><path class="st0" d="M86.6 83.9c-.5 0-.8-.1-1.1-.1h-.1c-1.5-.4-2.8-1-3.9-2.2-.9 1.5-2 2.9-3.3 4.6 1.6 2.5 4.2 3.2 7.1 2.4 1.6-1.4 3.7-3.3 6-5.3-1.8.5-3.3.7-4.7.6zM62.3 61.7c.9-.6 2-1.9 3-3.5-.1 0-.8-.3-1.8-.5-.8 1-1.5 2.2-2.5 3.3l1.3.7zm13.8-2.1c-2 3.2-4.3 5.6-5.1 6.2 2.5 1.4 5.1 2 7.2.8 1.6-.9 4.4-3.5 6.3-6.6h-1c-2.6-.2-5.1-.3-7.4-.4zm6.3 11.1c.6 1.5.9 3 .9 4.3 4.6 1.3 15.2-2.7 19-8.6.3-2.4-.8-4.7-3.5-6.2l-.5-.1.1.1c-1.4 2.3-8.6 8.4-16 10.5z"/><path d="M102.3 66.5c-3.7 6-14.4 9.9-19 8.6V76.8c0 .1-.1.4-.1.5l-.1.1v.1c-.1.3-.1.5-.3.8 0 .1 0 .1-.1.3s-.1.4-.3.5v.2c-.1.3-.3.5-.3.6s-.1.1-.1.3-.1.1-.1.3c0 .1-.1.3-.1.3v-.1c0 .1-.1.1-.1.3-.1.1-.3.4-.4.5 1.1 1 2.5 1.8 3.9 2.2h.1c.4.1.8.1 1 .1h.1c1.4.1 3-.1 4.6-.8l1.8-1.8.1-.1.1-.1.4-.4.4-.4.2-.2c.9-.9 1.9-2 2.7-3 .1-.3.4-.4.5-.6v-.1c.1-.3.3-.4.5-.6l.1-.1c.1-.3.4-.4.5-.6.1-.3.4-.4.5-.6l.1-.3c.1-.1.1-.3.3-.4l.3-.4c0-.1.1-.1.1-.3.1-.1.3-.3.3-.5l.1-.1V72l.1-.3c.1-.1.1-.3.3-.4-.1.1-.1.3-.3.4 1.3-2.2 2.2-4.1 2.3-6-.1 1-.1 1-.1.8 0 0 0-.1 0 0zM78 86c-.5.6-.9 1.3-1.4 1.9l-.3.3c-.1.1-.3.4-.4.5-.5.6-1 1.3-1.8 2.2-.4.5-.8.9-1.3 1.4 1 1.8 2.8 2.4 4.2 2.5h.5c1.4-1 2.4-2 3.3-2.7.6-.5 1-.8 1.1-.9s.4-.4.8-.6c.5-.4.9-.8 1.6-1.4l.1-.1.4-.4c-2.6.5-5 0-6.8-2.7zm-4.7 12c-1.4.4-3.7 0-4.4-1.4 0 0 0-.1-.1-.1l-1 1-.8.7-.1.1-.3.1-.6.6c-5.2 4.9-10.8 10-13.8 12.5l-.4.4-.4.3v.1c-.1 0-.1.1-.1.1l-.1.1-.1.1-.1.1-.1.1-.1.1h-.1l-.1.1c.5-.3.9-.5 1.4-.8 0 0 .1 0 .1-.1.5-.3.9-.5 1.3-.8 0 0 .1 0 .1-.1.5-.3.9-.5 1.4-.8.5-.4 1-.6 1.5-.9.5-.3.9-.6 1.4-.9h.1l.4-.3h.1l.3-.1.3-.1.1-.1s-.1 0-.1.1c.1-.1.3-.1.5-.3l.1-.1.6-.4.6-.4.1-.1c.3-.1.5-.4.8-.5 4-2.7 8.2-5.7 11.6-8.3.1 0 .1 0 0 0 .1 0 .1 0 0 0z"/><path class="st0" d="M67.1 50.5l-.6.6c-.4 1.5-1 3.4-2.4 5.6.8.3 2.2.6 3 .8l5.2-7.2-5.2.2zm39.5-25.7l-16.2.8-7.3 10.1c5.2-3.4 10.8-6.1 17.2-8 1.9-.6 3.5-.9 5.2-1.3l1.1-1.6zM65.7 42.9l.1.4v.1c0 .1.1.3.1.4.1.4.3.6.3.9v.1c0 .1.1.3.1.5v.3c0 .1 0 .3.1.4 0 .1 0 .3.1.4v.1c0 .1 0 .4.1.5.1.8.1 1.6.1 2.7l1.5-1.5.1-.1 1.4-1.4c.1-.1.3-.3.4-.3.5-.5.9-.8 1.3-1.1.1-.1.3-.3.5-.4.4-.4.8-.8 1.1-1 .3-.1.4-.4.6-.5.4-.4.8-.6 1-.9.3-.3.5-.5.8-.6.4-.3.6-.5.9-.8.4-.3.8-.6 1-.8.3-.3.5-.4.8-.6.6-.5 1.1-.8 1.8-1.3l-11.7.6c-.3.4-.5.8-.8 1-.1.3-.4.5-.5.8.1-.3-1.1 1.7-1.2 2.1-.1 0-.1 0 0 0zm49-18.8c-.4-2.8-1.3-4.9-2.5-6.6l-5.1 7 7.6-.4zm-16.4-9.5C92.1 16 85.1 19.9 78.6 26l11.9-.6 7.8-10.8z"/><path class="st2" d="M82.8 35.9l7.5-10.4-11.9.6c-3.5 3.4-7.1 7.6-10.3 12.2l11.8-.6c1.1-.7 2-1.3 2.9-1.8zm22.8-9.6c1.6-.3 3.3-.4 4.8-.4 1.6 0 3 .1 4.4.5 0-.8 0-1.4-.1-2.2l-7.7.4-1.4 1.7zm1.2-1.7l5.2-7.1c-.1-.1-.3-.4-.5-.5-2-2.2-4.9-3-8.2-3-1.5 0-3.2.3-4.8.6l-7.7 10.8 16-.8zm-8.9 12.2l6.7-9.2c-1.3.3-2.5.6-3.9 1-7 2.2-12.9 5.1-18.6 9.1l15.8-.9zm15.4-.6l-15.4.8-9 12.3 15.3-.8 9.1-12.3zM97.9 57.6c4.2-.8 8.2-1.8 12.2-3.4 4.3-1.9 7.6-4.1 9.9-6.3l-15.4.8-6.7 8.9zm-16 1.2l6.8-9.4-16.2.8-5.2 7.2c.9.1 2.2.4 3.8.6 2.9.3 6.7.7 10.8.8zm-14.7-8.5l5.2-.3 7.9-10.8.8-.9c-4.7 3.4-9.2 7.4-13.9 12zm56.9-14.8c-.8-2.7-2.4-5.1-5.3-6.6l-5.2 7.2c0-.1 10.5-.6 10.5-.6z"/><path class="st0" d="M88.9 49.3l-6.8 9.4h1.4c4.4 0 9.2-.4 14.2-1.1l6.6-9.1-15.4.8zm8.9-12.4l-16 .8c-.3.1-.5.4-.6.5l-8.6 11.9 16.2-.8 9-12.4zm6.9-9.2L98 36.9l15.4-.8 5.2-7.2c-2.2-1.1-4.9-1.9-8.2-1.9-1.7 0-3.6.2-5.7.7zm19.4 7.8l-10.6.6-9 12.3 15.4-.8c3-3.2 4.6-6.6 4.6-9.8 0-.8-.1-1.5-.4-2.3zM24.7 53.6l-10.5 6.7c2.9.8 6.1.9 8.9.9 3.7 0 7-.5 8.6-.9.1 0 .3-.1.4-.1.1 0 .3-.1.3-.1-.5-1.1-.8-2.4-.9-3.9l-6.8-2.6z"/><path class="st2" d="M19.4 28.9l-8.5 5.6c.1.4.3.8.4 1.1 1.8-.5 3.7-.8 5.7-.8 3.2 0 6.7.6 10.5 2l2.2-1.4c-.1-.3-.1-.5-.1-.8 0-.6.1-1 .4-1.5l-10.6-4.2zm6.9-4.6c-2-.6-3.9-.8-5.7-.8-3 0-5.6.8-7.3 2.2-.1.1-.4.3-.5.4l6.6 2.8 6.9-4.6zm17.9 13.6c.5-.1.9-.3 1.4-.4-.8-1-1.8-2-2.7-2.9l-.3-.3-.8-.8-.4-.4-.6-.6-.5-.5-.5-.5c-.3-.3-.5-.4-.6-.6l-.4-.4c-.4-.3-.8-.6-1-.8l-2.3 1.4c3.6 1 6.8 3.7 8.7 6.8zm-3.3 0l1.3.6c-2-3.4-3.8-5.6-7.5-5.1.3.4.4.8.4 1.3 0 .3 0 .6-.1.8l5.9 2.4z"/><path class="st0" d="M29.9 33.2c.4-.5.8-.9 1.4-1.1 1.4-.6 2.9-.8 4.4-.5l2.3-1.5c-3.8-2.9-7.7-4.9-11.4-6l-7 4.6 10.3 4.5zm-10.7-4.4L12.8 26c-1.5 1.4-2.3 3.3-2.3 5.6 0 .8.1 1.8.4 2.8l8.3-5.6zm19.3 9.3c1 .9 1.4 1.3 1.4 1.4.8-.3 1.5-.6 2.3-.8l-7.2-3c-.4 1.1-1.4 2-2.5 2-1.3 0-2.4-.8-2.8-1.9l-2.2 1.4c.4.1.8.4 1.1.5l.3.1c.4.1.8.3 1 .5.1.1.4.1.5.3.3.1.4.3.6.3.4.1.8.4 1 .5h.1c.5.3 1 .6 1.5.8 2.2-2.3 3.3-3.5 4.9-2.1zM17 36c-2.2 0-3.9.3-5.7.8l9.9 4.2 4.9-3.3C22.9 36.4 19.8 36 17 36zm4.3 5l-10.6 6.8 13.9 5.7 7.2-4.7c0-.1 0-.3.1-.5-1.8-.6-2.9-1.8-3.5-2.4-.3-.4-.1-.9.5-1.8L21.3 41zM1.8 44.4c-.5 1.1-.8 2.3-.8 3.5 0 1.6.5 3.4 1.5 4.9l7.9-5.1-8.6-3.3z"/><path class="st2" d="M10.5 47.9L2.7 53c.1.1.1.3.3.4 2.5 3.7 6.7 5.8 11.3 6.8l10.5-6.7-14.3-5.6zM21.1 41l-10-4.2c-2.3.8-4.2 1.6-5.8 2.9-1.6 1.3-2.8 2.9-3.5 4.7l8.7 3.5L21.1 41zm3.6 12.5l6.5 2.7c-.3-2-.1-4.4.5-7.2l-7 4.5zm7.5-13.2c-.1-.1-.1-.1-.3-.1-.3-.1-.6-.3-.8-.5 0 0-.1 0-.1-.1-.3-.1-.5-.3-.6-.4h-.3l-.5-.3h-.3c-.1-.1-.4-.1-.5-.3-.1 0-.3-.1-.3-.1-.1-.1-.4-.1-.5-.3-.1 0-.1-.1-.3-.1-.3-.1-.4-.1-.6-.3H27c-.3-.1-.5-.3-.8-.3l-4.9 3.3 7.7 3.3c.6-.8 1.6-1.9 3.3-3.2.3-.1.4-.4.6-.5-.2.1-.5.1-.7-.1z"/><path class="st3" d="M38.2 57.3v-.8c0-2.3 1.8-4.4 4.2-4.7h.8c2 0 3.5 1.1 4.4 2.8-.1-.9-.3-1.9-.6-2.8-1.3-4.6-4.7-7.5-7.9-6.5-3.3.9-4.8 5.3-3.4 9.9.8 2.8 2.5 4.4 4.7 5.2-1.3-.6-1.9-1.6-2.2-3.1zm18.9-17.6c-3.4-.3-6.3 3.5-6.3 8.4.1 2.7.8 4.6 2.2 5.7-.5-.6-.8-1.4-.9-2.2v-.8c0-2.3 1.8-4.4 4.2-4.7h.8c2.3 0 4.4 1.8 4.8 4.1v.8c0 .4 0 .8-.1 1.1.4-.9.8-2.2.8-3.5 0-4.8-2.2-8.6-5.5-8.9z"/><path class="st0" d="M46.5 59.7c.8-.8 1.1-1.9 1.1-3v-.6c0-.3-.1-.4-.1-.6-.6-2-2.3-3.4-4.4-3.4h-.6c-2.3.4-3.9 2.2-3.9 4.4v.6c.3 1.6 1.3 2.9 2.8 3.5.6.3 1.1.4 1.9.4h.8c.1 0 .4-.1.5-.1.5.1 1.2-.6 1.9-1.2zm-2.9-2v.3l.3 2.2h-.4c-1.9.3-3.5-1-3.9-2.9v-.1c-.3-1.9 1-3.5 3-3.9 2-.3 3.7 1 3.9 3v.8c-.1.8-.5 1.5-.9 2.2l-2-1.6zm13.1-11.3h-.8c-2.3.4-3.9 2.2-3.9 4.4v.6c.3 1.3.9 2.3 1.9 3 .8.6 1.8.8 2.7.8h.8c1-.1 1.9-.6 2.5-1.1.9-.8 1.4-2 1.4-3.3v-.6c-.4-2.1-2.4-3.8-4.6-3.8zm2.4 7L57 51.7l.3 2.7c-2 .3-3.7-1-3.9-2.9-.3-1.9 1-3.5 3-3.9 2-.3 3.7 1 3.9 2.9 0 1.1-.3 2.2-1.2 2.9z"/><path d="M121.4 29.3c-1.5-1.3-3.4-2.2-5.6-2.8 0-4.7-1.3-8-3.5-10.4-2.2-2.3-5.4-3.4-9.1-3.4-11.5.2-28.1 10.7-38.2 28.8-.4-.8-.8-1.3-1-1.5-.8-.6-1.6-.9-.6-3 1-2.2.4-2.3-4.9-3.8-5.1-1.5-6-.5-6.3.9l-.8 2.2c-.3 0-.8.1-1.3.4-.8-3.5-.4-7.7 3.9-9v.4c.3 1.5 1.6 2.5 3.3 2.3 1.5-.3 2.7-1.6 2.4-3.2-.3-1.3-1.1-2.2-2.4-2.3-6.3-.8-10 8.2-8.9 12.2-.6.1-1.1.3-1.8.5-8.2-10.4-18.4-14.9-26-14.9-3.3 0-6.1.8-8 2.4-1.9 1.6-3.2 3.9-3.2 6.7 0 1.4.3 2.8.8 4.4C8 37 6.3 38 4.6 39.1c-3 2.4-4.7 5.7-4.7 9.1 0 2.2.6 4.2 2 6.2 4.7 6.7 13.8 8.2 21 8.4 2.5 0 4.9-.3 6.6-.5.9-.1 1.6-.3 2.2-.5.4-.1.6-.1.8-.3 3.4 6.7 11.3 6.8 13.3 6.7 3-.1 5.6.5 8.2 2.2.1-.8 3.5-5.3 6.3-8.4.3-.3.5-.6.8-.8 1-1.1 1.9-2.2 2.5-3.3.8.3 1.5.5 1.8.5-1 1.8-2.2 3-3 3.5-1 0-1.4-.3-1.6 4.1l-2.7.4c-1.1 3.4-6.2 12-7.7 13.7-.1-2.2-1.8-5.2-2.7.1-.5 2.8 1 5.4 3.2 3.8 2.2-1.6 7.7-14.8 8.1-15.3l1.3-.3c-.3 3.8-.8 5.7-.8 6.2 0 .6-.8 1.1-1.1.5-.5-.8-1.5.1-.5 2s1.9 1.5 2.2-.4c.3-1.1.9-5.4 1.4-8.5l2.8-.5c-.8 4.8-4.7 17.7-5.3 19.1-.3-1.6-2-2.2-2.3 1.1-.3 3.3 2.7 5.2 3.2 3.4.5-1.9 6.1-21.1 6.7-21.8.4-.3.8-.4 1-.6 0 2.2 0 5.6-.1 6.3 0 1.6.9 2.4 2.5.5 1.6-2 1.3-3.5-.3-2.3-1.5 1.1-1.1-2.3-1-3.2.1-.8.5-3.4 2-1.4 1.5 1.9 2.7 2.8 3.2 3.3-.8 1.1-6.1 9.9-7.3 13.5-1.4 4.2 1.3 5.3 4.2 3 2.9-2.3.8-2.9-.3-2.3-1 .6-2 .8-1.1-1.6.6-1.8 4.3-8.5 6.3-11.9l-.1 1.3c-.3 2.4-.4 3.9-.3 4.8.3 1.6 1.1 2.2 3.2-.1.6-.8.1-1.4-.8-1.1-.8.3-1.1.3-.8-1.5.3-1.1.9-5.4 1.6-7.7.3 0 .4.1.5.1h.1c.1 0 .3.1.4.1h.1c.1 0 .3.1.4.1.1 0 .1 0 .3.1.1 0 .3.1.3.1l.3.1c.1 0 .3.1.3.1l.3.1c.1 0 .1.1.3.1h.2c.1 0 .3.1.3.3l.1.1.4.4C90.3 68 97.5 62 99 59.6l-.1-.1c-.9-.5-1.8-.8-2.5-1 5.2-.4 10.3-1.5 14.8-3.5 10.4-4.4 15.1-11.3 15.1-17.3-.8-3.1-2.2-6.1-4.9-8.4zM39 31l.4.4c.3.3.5.4.6.6l.5.5.5.5.6.6.4.4.8.8.3.3c.9.9 1.8 1.9 2.7 2.9-.5.1-.9.3-1.4.4-2-3.4-5-5.9-8.4-6.4l2.2-1.4c.2-.1.5.1.8.4zm-3.9 3.6c0-.5-.1-.8-.4-1.3 3.5-.5 5.4 1.8 7.5 5.1l-1.3-.6-6-2.5c.2-.2.2-.4.2-.7zm2.8-4.4l-2.3 1.5c-1.4-.3-2.9-.1-4.4.5-.6.3-1 .6-1.4 1.1l-10.4-4.4 7-4.6c3.7 1 7.7 2.9 11.5 5.9zm-8.5 4.6c0 .3 0 .5.1.8L27.3 37c-3.7-1.4-7.2-2-10.5-2-2.2 0-3.9.3-5.7.8-.1-.5-.3-.8-.4-1.1l8.5-5.6 10.5 4.4c-.2.2-.3.8-.3 1.3zM28.5 46c.6.8 1.8 1.9 3.4 2.5 0 .1 0 .3-.1.5l-7.2 4.7L10.7 48l10.6-6.8 7.7 3.3c-.5.5-.8 1.2-.5 1.5zm2.8 10.2l-6.5-2.7 7-4.6c-.5 2.8-.6 5.4-.5 7.3zm.1.1zM21.3 40.8l-9.9-4.2c1.8-.5 3.5-.8 5.7-.8 2.8 0 6 .5 9.2 1.6l-5 3.4zm-8-15.3c1.8-1.4 4.3-2.2 7.3-2.2 1.8 0 3.7.3 5.7.8l-7 4.6-6.4-2.7c0-.2.3-.4.4-.5zm-.5.5l6.5 2.8-8.5 5.4c-.3-.9-.4-1.9-.4-2.7.1-2.3.9-4.1 2.4-5.5zM5.3 39.7c1.5-1.3 3.5-2.3 5.8-2.9l10 4.2-10.6 6.8-8.7-3.5c.7-1.7 1.9-3.3 3.5-4.6zM1 47.9c0-1.1.3-2.4.8-3.5l8.6 3.5L2.5 53c-1-1.7-1.5-3.3-1.5-5.1zm1.8 5.6c-.1-.1-.1-.3-.3-.4l7.9-5.1 13.9 5.7-10.4 6.7c-4.4-1.1-8.6-3.1-11.1-6.9zm29.4 6.7c-.1 0-.3.1-.3.1-.1 0-.3.1-.4.1-1.6.5-4.9.9-8.6.9-2.8 0-5.8-.3-8.9-.9l10.5-6.7 6.7 2.7c.3 1.4.6 2.7 1 3.8zm.1-19.1c-1.5 1.3-2.5 2.3-3.3 3.2L21.3 41l4.9-3.3c.3.1.5.3.8.3l.3.1c.1.1.4.1.6.3l.3.1c.1.1.4.1.5.3.1 0 .3.1.3.1.1.1.4.1.5.3l.3.1.6.3.3.1c.3.1.5.3.6.4 0 0 .1 0 .1.1.3.1.6.3.8.5h.1c.3.1.5.3.8.4-.4-.4-.7-.1-.8 0zm1.4-1.1c-.5-.3-1-.6-1.5-.8H32c-.4-.3-.8-.4-1-.5l-.6-.3c-.3-.1-.4-.1-.5-.3-.4-.1-.8-.4-1-.5l-.3-.4c-.4-.1-.8-.4-1.1-.5l2.2-1.4c.4 1.1 1.5 2 2.8 1.9 1.3 0 2.3-.9 2.5-2l7.2 3c-.8.3-1.6.6-2.3.8-.1-.1-.4-.5-1.4-1.4-1.5-.9-2.7.3-4.8 2.4zm1.9 15.4c-1.3-4.6.1-9 3.4-9.9 3.3-.9 6.6 2 7.9 6.5.3.9.5 2 .6 2.9-.8-1.8-2.4-2.8-4.4-2.8h-.8c-2.4.4-4.2 2.3-4.2 4.7v.8c.3 1.3.9 2.4 2 3.2-2-1-3.8-2.6-4.5-5.4zm8.1 5.8h-.8c-.8 0-1.3-.1-1.9-.4-1.4-.6-2.5-1.9-2.8-3.5v-.6c0-2.2 1.6-4.2 3.9-4.4h.6c2.2 0 3.9 1.4 4.4 3.4 0 .1.1.4.1.6v.6c0 1.1-.5 2.2-1.1 3-.6.8-1.4 1.1-2.3 1.4.3-.1 0-.1-.1-.1zm1 1.9c4.9.1 7 .6 10.4-4.6-.8 6.5-2.2 10.8-10.4 4.6zm15.2-8.8c-.8.6-1.5 1-2.5 1.1h-.8c-1 0-2-.4-2.7-.8-.9-.8-1.6-1.8-1.9-3V51c0-2.2 1.6-4.2 3.9-4.4h.8c2.2 0 4.2 1.6 4.6 3.9v.6c0 1.1-.5 2.3-1.4 3.2zm2.3-5.7c-.1 1.4-.4 2.7-.8 3.5.1-.4.1-.8.1-1.1v-.8c-.4-2.3-2.4-4.1-4.8-4.1h-.8c-2.4.4-4.2 2.3-4.2 4.7v.8c.1.8.5 1.5.9 2.2-1.3-1.1-2-3.2-2.2-5.7-.1-4.7 2.9-8.6 6.3-8.4 3.7.3 5.9 4.1 5.5 8.9zm-.1 17.1c.1-.4.1-.6.1-.8.1-.8 0-2 2-.4.3.3.6.5.8.6l-2.9.6zm62-30.2l-10.6.6 5.2-7.2c3 1.6 4.8 3.8 5.4 6.6zm-5.4-6.7l-5.2 7.2-15.5.8 6.7-9.2c2-.4 3.9-.6 5.6-.6 3.4 0 6.2.7 8.4 1.8zm-37.5 9.4c.3-.1.5-.4.6-.5l16-.8-9 12.3-16.2.8 8.6-11.8zm-8.6 11.9l-5.3.3c4.7-4.7 9.1-8.6 13.7-12l-.8.9-7.6 10.8zm28.1-21.4c1.4-.5 2.7-.8 3.9-1l-6.7 9.2-15.8.8c5.7-4 11.6-6.9 18.6-9zm-17.6 6.9l7.3-10.1 16.2-.8-1.1 1.5c-1.6.3-3.4.8-5.2 1.3-6.5 2.1-12 4.7-17.2 8.1zM98 36.9l15.4-.8-9 12.3-15.3.8L98 36.9zm16.9-10.6c-1.4-.3-2.8-.5-4.4-.5-1.5 0-3 .1-4.8.4l1.1-1.6 7.7-.4c.2.7.4 1.4.4 2.1zm-.2-2.2l-7.7.5 5.1-7c1.4 1.6 2.2 3.7 2.6 6.5zM103.2 14c3.5 0 6.3 1 8.4 3 .1.1.3.4.5.5l-5.2 7.1-16.2.8 7.9-10.8c1.6-.5 3.1-.6 4.6-.6zm-4.9.6l-7.9 10.8-11.9.6c6.6-6.1 13.7-10 19.8-11.4zM78.4 26.1l11.9-.6-7.5 10.4c-.9.6-1.9 1.3-2.8 2l-11.8.6c3.1-4.9 6.6-8.9 10.2-12.4zM66.2 41.7c.2 0 .2 0 0 0 .3-.4.5-.8.6-1l.3-.4c.1-.3.4-.5.5-.8.3-.4.5-.8.8-1l11.6-.6c-.6.5-1.1.8-1.8 1.3-.3.3-.5.4-.8.6-.4.3-.8.5-1 .8-.4.3-.6.5-.9.8-.3.3-.5.5-.8.6-.4.4-.8.6-1 .9l-.5.5c-.4.4-.8.8-1.1 1-.1.1-.4.3-.5.4-.5.4-.8.8-1.3 1.3l-.3.2-1.4 1.4-.3.1-1.5 1.5c0-1 0-1.9-.1-2.7 0-.1 0-.4-.1-.5V46c0-.1 0-.3-.1-.4 0-.1 0-.3-.1-.4v-.3c0-.1-.1-.3-.1-.5v-.1c-.2-.3-.3-.5-.3-.8 0-.1-.1-.3-.1-.4V43l-.1-.3v-.1.1c0-.2.3-.7.4-1zm-2 15c1.4-2.2 2.2-4.1 2.4-5.6l.6-.6 5.2-.3-5.2 7.2c-1-.1-2.4-.5-3-.7zm3 .7l5.2-7.2 16.2-.8-6.8 9.4c-4.2-.1-8-.4-10.8-.8-1.5-.2-2.7-.4-3.8-.6zm9 12.8l-.1.6c-1-.8-2.5-2.2-3-2.9.5.1.9.3 1.4.4l.4.1c.6.1 1 .3 1.5.3 0 .4 0 .9-.2 1.5zm1.9-3.8c-2.2 1.3-4.7.8-7.2-.8.9-.6 3.3-3 5.1-6.2 2.2.1 4.8.3 7.5.3h1c-1.9 3.2-4.7 5.7-6.4 6.7zm5.4-7.6h-1.4l6.8-9.4 15.3-.8-6.6 9.1c-4.9.7-9.7 1.1-14.1 1.1zm26.4-4.5c-3.8 1.6-8 2.7-12.2 3.4l6.6-9.1 15.4-.8c-2.2 2.4-5.5 4.6-9.8 6.5zm10-6.7l-15.4.8 9-12.3 10.6-.6c.1.8.3 1.5.3 2.3.1 3.2-1.3 6.7-4.5 9.8zm-73.4 8.7c-.3-1.9-2.2-3.3-3.9-3-2 .3-3.3 2-3 3.9v.1c.4 1.9 2.2 3.2 3.9 2.9h.4l-.3-2.2v-.3l2.2 1.5c.5-.6.8-1.3.9-2.2-.1-.2-.2-.5-.2-.7zm9.7-8.9c-2 .3-3.3 2-3 3.9.3 1.9 2.2 3.3 3.9 2.9l-.3-2.5 2.2 1.8c.8-.8 1.1-1.9 1-3 0-1.9-1.9-3.2-3.8-3.1z"/><path class="st3" d="M44.7 63.1c8.1 6.3 9.5 1.9 10.4-4.6-3.3 5.3-5.5 4.6-10.4 4.6z"/></g></svg>