<svg id="Layer_1" xmlns="http://www.w3.org/2000/svg" viewBox="0 0 360.2 97.4"><style>.st0{fill:#100e0f}</style><path class="st0" d="M69.4 41.7H39.1c-.8 0-1.4.6-1.4 1.4v14.8c0 .8.6 1.4 1.4 1.4h11.8v18.4s-2.7.9-10 .9c-8.6 0-20.7-3.2-20.7-29.7 0-26.6 12.6-30.1 24.4-30.1 10.2 0 14.6 1.8 17.4 2.7.9.3 1.7-.6 1.7-1.4l3.4-14.3c0-.4-.1-.8-.5-1.1C65.4 3.9 58.5 0 40.9 0 20.7 0 0 8.6 0 49.9s23.7 47.5 43.7 47.5c16.6 0 26.6-7.1 26.6-7.1.4-.2.5-.8.5-1.1V43.1c0-.8-.6-1.4-1.4-1.4zM225.4 5c0-.8-.6-1.4-1.4-1.4h-17c-.8 0-1.4.6-1.4 1.4v32.9H179V5c0-.8-.6-1.4-1.4-1.4h-17c-.8 0-1.4.6-1.4 1.4v89.2c0 .8.6 1.4 1.4 1.4h17c.8 0 1.4-.6 1.4-1.4V56h26.6v38.1c0 .8.6 1.4 1.4 1.4h17.1c.8 0 1.4-.6 1.4-1.4V5z"/><ellipse class="st0" cx="90.5" cy="16.7" rx="11" ry="11.1"/><path class="st0" d="M100.3 75.3V34.1c0-.8-.6-1.4-1.4-1.4h-17c-.8 0-1.5.8-1.5 1.6v59c0 1.7 1.1 2.2 2.5 2.2h15.3c1.7 0 2.1-.8 2.1-2.3V75.3zM290.1 32.9h-16.9c-.8 0-1.4.6-1.4 1.4V78s-4.3 3.1-10.4 3.1c-6.1 0-7.7-2.8-7.7-8.7V34.3c0-.8-.6-1.4-1.4-1.4h-17.2c-.8 0-1.4.6-1.4 1.4v41c0 17.7 9.9 22.1 23.5 22.1 11.2 0 20.1-6.2 20.1-6.2s.4 3.2.6 3.6c.2.4.7.8 1.2.8H290c.8 0 1.4-.6 1.4-1.4V34.3c.1-.8-.5-1.4-1.3-1.4zM336.3 30.9c-9.6 0-16.1 4.3-16.1 4.3V5c0-.8-.6-1.4-1.4-1.4h-17.1c-.8 0-1.4.6-1.4 1.4v89.2c0 .8.6 1.4 1.4 1.4h11.9c.5 0 .9-.3 1.2-.8.3-.5.7-4.1.7-4.1s7 6.6 20.2 6.6c15.5 0 24.4-7.9 24.4-35.4.1-27.4-14.1-31-23.8-31zm-6.6 50.2c-5.9-.2-9.8-2.8-9.8-2.8V50s3.9-2.4 8.7-2.8c6.1-.5 12 1.3 12 15.8-.1 15.3-2.7 18.4-10.9 18.1zM149.3 32.7h-12.8V15.8c0-.6-.3-1-1.1-1H118c-.7 0-1 .3-1 .9v17.5s-8.7 2.1-9.3 2.3c-.6.2-1 .7-1 1.4v11c0 .8.6 1.4 1.4 1.4h8.9v26.4c0 19.6 13.7 21.5 23 21.5 4.2 0 9.3-1.4 10.1-1.7.5-.2.8-.7.8-1.3V82.1c0-.8-.7-1.4-1.4-1.4s-2.7.3-4.6.3c-6.3 0-8.4-2.9-8.4-6.7V49.2h12.8c.8 0 1.4-.6 1.4-1.4V34.1c0-.7-.6-1.4-1.4-1.4z"/></svg>