<svg xmlns="http://www.w3.org/2000/svg" viewBox="0 0 126 126"><path fill="#231f20" d="M0 0h126v126H0z"/><path d="M63.1 19C38.2 19 18 39.3 18 64.1c0 20 12.9 36.8 30.8 42.7 2.3.4 3.1-1 3.1-2.2 0-1.1 0-3.9-.1-7.7-12.5 2.8-15.2-6-15.2-6-2.1-5.2-5-6.6-5-6.6-4.1-2.8.3-2.8.3-2.8 4.5.3 6.9 4.7 6.9 4.7 4 6.9 10.5 4.9 13.1 3.8.4-2.9 1.6-4.9 2.8-6-10-1.2-20.5-5-20.5-22.3 0-4.9 1.8-8.9 4.7-12.1-.5-1.2-2-5.8.4-11.9 0 0 3.8-1.3 12.4 4.6 3.6-1 7.4-1.5 11.3-1.5s7.7.5 11.3 1.5c8.6-5.8 12.4-4.6 12.4-4.6 2.4 6.2.9 10.8.4 11.9 2.9 3.2 4.7 7.2 4.7 12.1 0 17.3-10.5 21.1-20.6 22.2 1.6 1.4 3.1 4.2 3.1 8.3 0 6-.1 10.9-.1 12.4 0 1.2.8 2.6 3.1 2.2 17.9-6 30.8-22.9 30.8-42.7.1-24.8-20.1-45.1-45-45.1z" fill="#fff"/></svg>