<svg id="Layer_1" xmlns="http://www.w3.org/2000/svg" viewBox="0 0 324.1 126"><style>.st0{fill:#333}</style><path class="st0" d="M0 0h126v126H0V0z"/><path d="M98.1 95.9c-3.2 3.8-7.7 6.8-13.5 8.9S72.3 108 65.2 108c-7.4 0-14-1.6-19.6-4.9s-10-8-13-14.2c-3.1-6.2-4.6-13.5-4.7-21.8v-5.9c0-8.6 1.4-16 4.3-22.3s7.1-11.1 12.5-14.4c5.5-3.3 11.9-5 19.2-5 10.2 0 18.2 2.4 23.9 7.3 5.8 4.9 9.2 12 10.2 21.3H80.9c-.8-4.9-2.5-8.5-5.2-10.8s-6.4-3.4-11.1-3.4c-6 0-10.6 2.3-13.8 6.8S46 52 46 60.9v5.5c0 9 1.7 15.8 5.1 20.5 3.4 4.6 8.5 6.9 15.1 6.9 6.7 0 11.4-1.4 14.2-4.3V74.7H64.2V61.6h33.9v34.3z" fill="#eeeff5"/><path class="st0" d="M161.7 92.6h37.7v14.3H144V20.7h17.7v71.9zM222.8 59.5l17.9-38.8h19.4l-28.3 54.9v31.2h-18V75.6l-28.3-54.9H205l17.8 38.8z"/><g><path class="st0" d="M319.8 71.6h-34.1v35.2H268V20.7h56.1v14.4h-38.3v22.2h34.1v14.3z"/></g></svg>