<svg id="Layer_1" xmlns="http://www.w3.org/2000/svg" viewBox="0 0 270 126"><style>.st0{fill:#fff}</style><path d="M0 0h126v126H0V0z"/><path class="st0" d="M99.5 95.8c-3.2 3.6-8 6.5-14.2 8.7-6.2 2.2-13.1 3.3-20.5 3.3-11.4 0-20.5-3.5-27.4-10.5S27 80.6 26.5 68.2l-.1-7.5c0-8.6 1.5-16.1 4.6-22.5s7.4-11.3 13-14.8 12.2-5.2 19.6-5.2c10.9 0 19.3 2.5 25.3 7.5s9.5 12.4 10.5 22.2H79.2c-.7-4.9-2.3-8.3-4.7-10.4-2.4-2.1-5.8-3.1-10.2-3.1-5.3 0-9.3 2.2-12.2 6.7S47.8 52 47.7 60.3v5.3c0 8.7 1.5 15.2 4.5 19.6 3 4.4 7.7 6.6 14 6.6 5.5 0 9.5-1.2 12.2-3.7V74.5H63.9V60h35.6v35.8z"/><path d="M144 0h126v126H144V0z"/><path class="st0" d="M204.2 75.8h-11.4v30.8h-21V19.4h34.3c10.3 0 18.4 2.3 24.3 6.9 5.8 4.6 8.7 11.1 8.7 19.4 0 6.1-1.2 11.1-3.7 15.1s-6.3 7.2-11.5 9.7l18.2 35.2v.9h-22.5l-15.4-30.8zm-11.3-16.2h13.3c4 0 7-1 9-3.2 2-2.1 3-5 3-8.8 0-3.8-1-6.7-3.1-8.9s-5-3.2-9-3.2h-13.3v24.1z"/></svg>