<svg xmlns="http://www.w3.org/2000/svg" viewBox="0 0 126 126"><path fill="#c10712" d="M0 0h126v126H0z"/><path d="M96.8 98.1c-5.2-5.3-16.7-24.2-23-35.4 10.6-4.6 15.8-11.2 15.8-19.9C89.6 28.7 76 21.5 49 21.5c-7.1 0-20.4-.1-30.4-.5H18v2.3l4.2.7c3.9.7 5 1.4 5.5 3.1.7 4.3.9 8.7.8 13.1v45.5c0 6.1-.3 10.9-.7 12.7-.5 2.2-1.1 2.7-5.5 3.3l-4.3.3v2h42.9v-2.2l-5.2-.4c-4.6-.5-5.2-1-5.7-3.2-.5-1.8-.7-6.3-.7-12.9V66.7c.6 0 1.2 0 1.7-.1h1c1.9 0 2.5.1 4.5 3.5l13.3 23.5c4.9 8.6 7.3 11.4 15.8 11.4 2.5 0 6.1-.2 10-.4 1.6-.1 3.3-.2 4.9-.2l7.5-.3v-1.8l-.4-.1c-6.1-1-8.2-1.5-10.8-4.1zM56.3 62.7c-2.4.7-4.7 1-7.2 1.1V37.6c0-4.2.1-9.9.3-13.2 12.6.3 19.5 7.2 19.5 19.5.1 10.9-5.6 16.6-12.6 18.8z" fill="#fff"/></svg>