<svg id="Lager_1" xmlns="http://www.w3.org/2000/svg" viewBox="0 0 404.4 88.8"><style>.st1{fill:#c10712}</style><path d="M30.8 9c-.2 3.2-.3 8.8-.3 12.9-.1-4.1 0-9.7.3-12.9zm83.9 25.3c-1-1.1-2.4-1.8-4-1.8-2 .1-3.9.9-5.2 2.3-2.8 2.8-4.6 7.6-5.3 13.9 10.2-.2 16.4-.6 18.3-1.1.2-5.7-1.3-10.8-3.8-13.3zm269.3 0c-1-1.1-2.4-1.8-4-1.8-2 .1-3.9.9-5.2 2.3-2.8 2.8-4.6 7.6-5.3 13.9 10.2-.2 16.4-.6 18.3-1.1.1-5.7-1.3-10.8-3.8-13.3z" fill="none"/><path class="st1" d="M248.5 82.4c-1.4.1-2.2-.1-2.5-.5-.4-.7-.5-1.5-.4-2.3V40.8c0-3.4.2-8.6.4-10.2v-.2l-.5-.8-24 2.2v1.4L226 35c1.6.7 1.8.8 1.8 4.2v36.1c-2.9 1.4-5.1 2.1-7.1 2.1-2.5 0-4.1-.5-5.3-1.8-1.6-1.7-2-5.2-2-10V40.5c0-3.3.2-8.3.4-10v-.2l-.5-.8-24.1 2.2v1.5l4.5 1.8c1.6.6 1.8.7 1.8 4v33.6c0 7.3 1.4 10 3.8 12.4 2.4 2.3 5.6 3.5 8.9 3.4 6.2 0 12.2-3.2 19.4-10.3l-.2 5.4c0 .5-.1 1-.1 1.4 0 1-.1 2-.3 3v.3l.6.6 24.4-4.5-.2-1.9h-3.3zm94.8 0V45.2c0-7.6-1.7-10.5-3.5-12.4-2.3-2.3-5.4-3.5-8.7-3.5-6.4 0-12.8 3.4-19.9 10.7-.5-3.3-1.5-5.5-3.2-7.2-2.3-2.3-5.4-3.5-8.7-3.5-6.3 0-12 3-19.4 10.4l.1-2.9c0-1.2.2-4 .4-7l.1-.8-.6-.8-22.8 7.8v.9l3.6 4.1c.9 1.1 1.3 2.6 1.2 4.1v37.3c0 1.5 0 1.8-2.8 2.2l-2.3.4v1.9h27.6V85l-2.3-.4c-2.2-.3-2.2-.6-2.2-2.1v-40c2.2-1.2 4.6-1.9 7.1-1.9 1.7-.1 3.5.5 4.8 1.6 1.9 1.9 2 5.1 2 10.1v30.1c0 1.5 0 1.8-2.2 2.1l-2.3.4v1.9H316V85l-2.3-.4c-2.1-.3-2.1-.5-2.1-2.1V46.8c0-1.5 0-2.9-.1-4.1 2.2-1.2 4.7-2 7.2-2.2 1.7-.1 3.4.5 4.8 1.6 1.9 1.9 1.9 5.2 1.9 10.1v30.1c0 1.5 0 1.8-2.1 2.1l-2.3.4v1.9h27.5V85l-2.3-.4c-2.9-.5-2.9-.6-2.9-2.2zM133.7 69.8c-3.9 4.2-9.4 6.5-15.1 6.4-11.8 0-18.5-8.5-18.5-23.3v-1.6l33.7.1.1-.4c.4-1.2.5-2.4.5-3.6 0-10.7-9.3-18.1-22.7-18.1-16.2 0-28.5 13.4-28.5 31.2 0 16.4 11.1 28.3 26.4 28.3 11.3 0 20.6-6.6 25.5-18.1l.2-.4-1.2-.9-.4.4zm-28.2-35c1.4-1.4 3.2-2.3 5.2-2.3 1.5 0 2.9.7 4 1.8 2.5 2.6 4 7.6 3.9 13.3-1.9.6-8.1.9-18.3 1.1.6-6.3 2.4-11.1 5.2-13.9zm297.8 34.7l-.3.3c-3.9 4.2-9.4 6.5-15.1 6.4-11.8 0-18.5-8.5-18.5-23.3v-1.6l33.7.1.1-.4c.4-1.2.5-2.4.5-3.6 0-10.7-9.3-18.1-22.7-18.1-16.2 0-28.5 13.4-28.5 31.2 0 16.4 11.1 28.3 26.4 28.3 11.3 0 20.6-6.6 25.5-18.1l.2-.4-1.3-.8zm-28.5-34.7c1.4-1.4 3.2-2.3 5.2-2.3 1.5 0 2.9.7 4 1.8 2.5 2.6 4 7.6 3.9 13.3-1.9.6-8.1.9-18.3 1.1.6-6.3 2.4-11.1 5.2-13.9zM166.7 49.6c-6.1-3.7-9.2-6.3-9.2-10.8 0-2.9 1.7-6 6.4-6 3.9 0 7.8 2.4 16 14.8l.2.3 1.6-.4v-.4c0-2.8-.5-11.8-.8-14.1v-.3l-.3-.1c-5-2-10.3-3-15.7-3-12.4 0-21.4 7.2-21.4 17.1 0 9.8 7.1 14.2 16.1 19.9 7.2 4.4 10.8 7.4 10.8 12.2 0 4.1-2.5 6.6-6.6 6.6-5.8 0-11.3-5-20.3-18.5l-.2-.3-1.6.5v.4c.3 5.9.9 11.8 1.8 17.7v.3l.3.1c5.6 2.1 11.6 3.2 17.6 3.1 13.8 0 23-7.3 23-18.3.1-9.6-7.3-14.7-17.7-20.8z"/><path class="st1" d="M77 81c-5.1-5.2-16.3-23.6-22.5-34.6C64.9 41.9 69.9 35.5 69.9 27c0-13.8-13.3-20.8-39.6-20.8-6.9 0-19.9-.1-29.7-.5H0v2.2l4.1.7c3.8.7 4.9 1.4 5.4 3 .7 4.2.9 8.5.8 12.8v44.4c0 6-.3 10.6-.7 12.4-.5 2.1-1.1 2.6-5.4 3.2l-4.2.4v2h41.9v-2.1l-5.1-.4c-4.5-.5-5.1-1-5.6-3.1-.5-1.8-.7-6.2-.7-12.6V50.3c.6 0 1.2 0 1.7-.1h1c1.9 0 2.4.1 4.4 3.4l13 23C55.4 85 57.7 87.7 66 87.7c2.4 0 6-.2 9.8-.4 1.6-.1 3.2-.2 4.8-.2l7.3-.3V85l-.4-.1c-5.9-.9-8-1.4-10.5-3.9zM37.4 46.4c-2.3.7-4.6 1-7 1.1V21.9c0-4.1.1-9.7.3-12.9 12.3.3 19 7 19 19 .1 10.7-5.5 16.3-12.3 18.4zm344.7-26.9l8-4.9c4.1-2.5 5.6-4.7 5.6-7.6-.2-4-3.5-7-7.5-7-4.4 0-6.1 3.7-8 7.7l-3.9 8c-1.4 2.7-3.7 7-5.8 10.7l.5.3c3.9-2.6 7.5-4.9 11.1-7.2z"/></svg>