<svg xmlns="http://www.w3.org/2000/svg" version="1" width="800" height="365.767"><path d="M235.489 250.52c0-65.966-45.091-85.175-89.354-98.54l-32.553-9.187c-25.892-7.509-56.791-20.036-56.791-55.114 0-40.084 30.899-60.959 68.48-60.959 40.072 0 62.612 14.203 89.343 51.773l-6.683-64.301C182.039 3.342 153.655 0 126.924 0 61.797 0 8.348 30.899 8.348 101.882c0 70.146 44.264 86.84 88.528 99.367l31.736 9.186c30.061 9.187 55.941 21.713 55.941 60.133 0 40.911-33.413 67.642-71.821 67.642-51.773 0-83.499-18.372-112.732-65.977v76c33.413 11.689 67.63 17.534 101.881 17.534 73.487 0 133.608-35.079 133.608-115.247m250.53-157.824h-70.983c12.527 5.006 15.857 15.03 11.7 25.054l-56.791 135.284-54.276-139.463c-3.353-9.187 2.503-16.707 12.527-20.875h-92.707c10.023 4.168 17.533 15.03 21.713 25.054l99.378 248.017L460.137 117.75c4.157-10.861 15.031-20.048 25.882-25.054M800 182.878C800 74.325 726.525 7.51 627.147 7.51H484.354c14.191 6.683 26.707 19.21 26.707 35.916v279.753c0 16.695-12.516 29.223-26.707 35.066h145.284c89.355 0 170.362-71.809 170.362-175.367m-60.11 0c0 87.689-31.736 147.811-126.936 147.811-28.396 0-45.929-6.683-45.929-28.396V39.247c15.019-4.169 31.736-5.007 46.756-5.007 86.841 0 126.109 70.145 126.109 148.638"/></svg>