<svg xmlns="http://www.w3.org/2000/svg" viewBox="0 0 126 126"><path fill="#436cae" d="M0 108h126v18H0z"/><path d="M37.1 73.6c0-10.5-7.1-13.4-14-15.6L18 56.6c-4.1-1.1-8.9-3.2-8.9-8.7 0-6.4 4.8-9.6 10.8-9.6 6.4 0 9.8 2.3 14 8.2l-1-10.1c-4.1-1.7-8.5-2.3-12.8-2.3C9.9 34.2 1.4 39 1.4 50.2c0 11.1 7 13.6 13.9 15.7l5 1.4c4.7 1.4 8.8 3.4 8.8 9.4 0 6.5-5.2 10.7-11.4 10.7C9.6 87.5 4.6 84.6 0 77v12c5.2 1.8 10.7 2.8 16.1 2.8 11.4-.1 21-5.6 21-18.2m39.4-24.9H65.3c1.9.8 2.6 2.4 1.8 4L58.2 74l-8.6-22c-.5-1.4.4-2.7 1.9-3.3H37.1c1.5.6 2.8 2.4 3.4 4l15.7 39 16.2-39c.7-1.8 2.5-3.2 4.1-4M126 62.9c0-17.1-11.6-27.7-27.3-27.7H76.3c2.3 1 4.2 3.1 4.2 5.6v44.1c0 2.7-1.9 4.6-4.2 5.5h23c13.9.1 26.7-11.2 26.7-27.5m-9.4 0c0 13.8-5 23.3-20 23.3-4.5 0-7.3-1-7.3-4.5V40.3c2.4-.6 5-.8 7.4-.8 13.6-.1 19.9 11 19.9 23.4"/></svg>