<svg xmlns="http://www.w3.org/2000/svg" viewBox="0 0 126 126"><path d="M0 0h126v126H0V0z" fill="#fff"/><path d="M44.5 70.6c0-7.5-5.1-9.6-10-11.1l-3.6-1c-2.9-.8-6.4-2.3-6.4-6.2 0-4.6 3.4-6.9 7.7-6.9 4.6 0 7 1.6 10 5.9l-.7-7.3c-2.9-1.2-6.1-1.6-9.1-1.6-7.3 0-13.4 3.4-13.4 11.4 0 7.9 5 9.7 9.9 11.2l3.6 1c3.4 1 6.3 2.4 6.3 6.7 0 4.6-3.7 7.6-8.1 7.6-5.8.1-9.4-2-12.6-7.4v8.6c3.7 1.3 7.6 2 11.5 2 8 0 14.9-3.9 14.9-12.9m28.1-17.8h-8c1.4.6 1.9 1.7 1.3 2.9l-6.4 15.2-6.1-15.7c-.4-1 .3-1.9 1.4-2.4H44.5c1.1.4 2 1.7 2.4 2.9l11.2 27.9 11.6-27.9c.5-1.4 1.8-2.4 2.9-2.9M108 62.9c0-12.2-8.3-19.8-19.5-19.8h-16c1.6.7 3 2.2 3 4v31.5c0 1.9-1.4 3.3-3 3.9h16.4c10 .1 19.1-7.9 19.1-19.6m-6.7 0c0 9.9-3.6 16.6-14.3 16.6-3.2 0-5.2-.7-5.2-3.2V46.8c1.7-.4 3.6-.6 5.3-.6 9.7-.1 14.2 7.9 14.2 16.7"/><path d="M0 108h126v18H0v-18z" fill="#436cae"/></svg>