<svg xmlns="http://www.w3.org/2000/svg" viewBox="0 0 126 126"><path d="M0 0h126v126H0z"/><path d="M85.7 63.2s1.4-.6 2.7-3c1.4-2.5 1.9-7.4 1.1-12.2-.5-3.3-2.4-5.5-4.4-6.8-3.2-1.9-6-2.9-11.7-3.3H91c3.8 0 6.8.5 8.9 1.4 4.8 2.4 6.8 8.2 6.2 13.3-.6 4.6-3.5 7.8-7.1 9.2-2.6 1.4-4.3 1.4-13.3 1.4m-21.8-.7L42.4 38h21.5zm20.5.7l23.6 25H86.4l-21.8-25zm-43.8 0H30.2c-5.1 0-8.1-1.9-10.5-5.7-2.1-3.5-2.4-9.7-.3-13.2 2.1-3.3 5.1-6.5 11.9-6.5h9.5s-.8.2-1.4.3c-2.2 1.1-3.5 2.9-4.3 5.5-1 3.2-1 9.4-.5 12 .5 2.7 1.3 4.9 2.4 6 .8.9 2.4 1.6 3.6 1.6m24.6 12.3c0 6.2-3.3 10.3-7.6 11.9-2.1.8-3.8.8-5.5.8h-10c1.1-.2 2.7-.8 3.3-1.4 1.9-1.4 2.5-3 3-5.4.6-3.3.5-7.6.2-10.3-.2-1.4-.8-4.3-2.4-5.7-1.3-1.1-2.7-1.9-4.3-2.1h11.6c5.2-.1 11.7 3.2 11.7 12.2M18.9 88.2h21.7l-21.7-22z" fill="#fff"/></svg>