<svg xmlns="http://www.w3.org/2000/svg" xmlns:xlink="http://www.w3.org/1999/xlink" width="363.213" height="55.109" overflow="visible"><switch><g><defs><path id="a" d="M0 55.109h363.213V0H0v55.109z"/></defs><clipPath id="b"><use xlink:href="#a"/></clipPath><path clip-path="url(#b)" d="M77.194 28.508c-.132 6.626 4.646 8.654 10.506 8.654 3.38 0 8.52-1.849 8.52-6.534 0-3.654-3.65-5.097-6.626-5.818l-7.168-1.756c-3.784-.949-7.259-2.751-7.259-7.754 0-3.157 2.029-9.061 11.094-9.061 6.355 0 11.944 3.427 11.902 10.005h-3.069c-.179-4.912-4.235-7.392-8.79-7.392-4.192 0-8.069 1.623-8.069 6.399 0 3.025 2.252 4.283 4.87 4.918l7.842 1.936c4.555 1.219 8.343 3.204 8.343 8.479 0 2.208-.903 9.197-12.308 9.197-7.619 0-13.208-3.427-12.849-11.272h3.061zM99.65 15.841h3.157l7.302 20.421h.088l7.213-20.421h2.932l-8.702 23.262h-3.019L99.65 15.841zM124.127 28.238c.048 4.147 2.211 9.152 7.667 9.152 4.147 0 6.403-2.435 7.302-5.954h2.842c-1.219 5.277-4.285 8.344-10.145 8.344-7.395 0-10.503-5.683-10.503-12.309 0-6.131 3.108-12.308 10.503-12.308 7.483 0 10.459 6.536 10.232 13.074h-17.898zm15.059-2.391c-.132-4.28-2.794-8.292-7.392-8.292-4.642 0-7.213 4.058-7.667 8.292h15.059zM146.756 15.841h2.617v5.454h.087c1.443-3.741 4.6-5.953 8.795-5.772v2.84c-5.141-.271-8.659 3.518-8.659 8.339v12.4h-2.84V15.841zM162.358 15.841h2.843v23.262h-2.843V15.841zm0-8.928h2.843v4.555h-2.843V6.913zM190.753 37.21c-.045 6.941-2.706 11.181-10.325 11.181-4.642 0-9.243-2.077-9.646-7.032h2.837c.633 3.425 3.654 4.64 6.809 4.64 5.229 0 7.483-3.11 7.483-8.789v-3.155h-.092c-1.307 2.837-4.056 4.776-7.392 4.776-7.438 0-10.502-5.318-10.502-11.944 0-6.403 3.785-11.723 10.502-11.723 3.385 0 6.268 2.12 7.392 4.691h.092v-4.014h2.842V37.21zm-2.841-10.008c0-4.555-2.118-9.647-7.483-9.647-5.41 0-7.665 4.823-7.665 9.647 0 4.688 2.435 9.24 7.665 9.24 4.913-.001 7.483-4.507 7.483-9.24M198.056 28.238c.048 4.147 2.211 9.152 7.667 9.152 4.146 0 6.402-2.435 7.304-5.954h2.841c-1.22 5.277-4.283 8.344-10.145 8.344-7.396 0-10.504-5.683-10.504-12.309 0-6.131 3.108-12.308 10.504-12.308 7.482 0 10.459 6.536 10.231 13.074h-17.898zm15.062-2.391c-.139-4.28-2.797-8.292-7.395-8.292-4.643 0-7.213 4.058-7.667 8.292h15.062zM234.165 22.647c-.132-3.515-2.837-5.093-6.085-5.093-2.525 0-5.498.992-5.498 4.013 0 2.522 2.885 3.423 4.821 3.92l3.789.858c3.243.494 6.627 2.39 6.627 6.446 0 5.048-5.006 6.989-9.333 6.989-5.411 0-9.107-2.526-9.559-8.208h2.841c.227 3.833 3.063 5.818 6.854 5.818 2.658 0 6.356-1.172 6.356-4.418 0-2.707-2.523-3.607-5.093-4.237l-3.653-.813c-3.699-.992-6.491-2.254-6.491-6.222 0-4.734 4.643-6.536 8.745-6.536 4.643 0 8.341 2.435 8.52 7.483h-2.841zM250.936 6.913h14.742c5.319 0 9.781 2.57 9.781 8.387 0 4.056-2.12 7.392-6.268 8.204v.093c4.196.542 5.411 3.427 5.639 7.256.136 2.211.136 6.63 1.487 8.251h-3.384c-.766-1.264-.766-3.653-.856-5.005-.269-4.507-.63-9.51-6.448-9.288H254v14.293h-3.063V6.913zM254 22.196h11.451c3.741 0 6.945-2.341 6.945-6.267 0-3.92-2.348-6.399-6.945-6.399H254v12.666zM279.751 22.961c.271-5.454 4.099-7.797 9.423-7.797 4.101 0 8.563 1.264 8.563 7.483v12.352c0 1.083.541 1.714 1.669 1.714.314 0 .678-.089.901-.181v2.392c-.63.134-1.08.179-1.849.179-2.885 0-3.336-1.621-3.336-4.056h-.091c-1.984 3.019-4.013 4.733-8.475 4.733-4.283 0-7.798-2.12-7.798-6.809 0-6.539 6.354-6.763 12.486-7.485 2.344-.27 3.65-.584 3.65-3.155 0-3.833-2.749-4.778-6.085-4.778-3.518 0-6.132 1.623-6.219 5.407h-2.839zm15.145 3.427h-.088c-.362.678-1.621.901-2.39 1.037-4.826.856-10.818.813-10.818 5.366 0 2.84 2.522 4.599 5.184 4.599 4.326 0 8.16-2.751 8.112-7.304v-3.698zM323.656 39.103h-2.613v-4.418h-.091c-1.216 3.021-4.914 5.096-8.296 5.096-7.077 0-10.46-5.726-10.46-12.309 0-6.582 3.383-12.308 10.46-12.308 3.475 0 6.854 1.757 8.072 5.093h.088V6.913h2.84v32.19zm-11-1.712c6.043 0 8.16-5.096 8.16-9.919 0-4.825-2.117-9.917-8.16-9.917-5.408 0-7.619 5.093-7.619 9.917 0 4.822 2.211 9.919 7.619 9.919M329.57 15.841h2.84v23.262h-2.84V15.841zm0-8.928h2.84v4.555h-2.84V6.913zM359.134 27.472c0 6.671-3.876 12.309-10.997 12.309-7.124 0-11.001-5.638-11.001-12.309 0-6.673 3.877-12.308 11.001-12.308 7.121 0 10.997 5.634 10.997 12.308m-19.157 0c0 4.957 2.706 9.919 8.16 9.919 5.455 0 8.16-4.962 8.16-9.919 0-4.96-2.705-9.917-8.16-9.917-5.454-.001-8.16 4.956-8.16 9.917M46.779 23.373s.912-.433 1.743-1.868c.918-1.582 1.196-4.707.713-7.695-.329-2.05-1.478-3.477-2.763-4.29-1.977-1.248-3.826-1.779-7.367-2.109h11.133c2.445 0 4.324.297 5.62.945 2.962 1.479 4.321 5.234 3.885 8.434-.396 2.892-2.163 4.88-4.464 5.829-1.636.677-2.746.754-8.5.754M33.095 22.965L19.511 7.41h13.584v15.555zM45.989 23.373L60.92 39.135H47.254L33.467 23.373h12.522zM18.442 23.387c-.668.003-6.575-.018-6.575-.018-3.229 0-5.093-1.215-6.571-3.577-1.348-2.158-1.509-6.06-.154-8.292 1.296-2.145 3.236-4.086 7.528-4.086l5.992-.003s-.458.104-.867.243c-1.607.552-2.365 1.712-2.875 3.411-.594 1.991-.581 5.896-.304 7.633.269 1.691.762 3.109 1.541 3.797.468.409 1.429.794 2.285.892M33.878 31.142c0 3.906-2.075 6.541-4.771 7.479-1.292.454-2.411.515-3.514.515-2.782-.003-6.274 0-6.274 0 .744-.12 1.655-.545 2.131-.929 1.171-.937 1.578-1.886 1.915-3.372.409-2.131.332-4.762.112-6.55-.112-.904-.504-2.658-1.526-3.566-.812-.724-1.681-1.16-2.687-1.346 0 0 5.316.007 7.279.011 3.249.003 7.335 2.082 7.335 7.758M4.667 39.135H18.41L4.667 25.207v13.928z"/></g></switch></svg>