<svg xmlns="http://www.w3.org/2000/svg" viewBox="0 0 355 50.9"><path d="M73.1 31c-.1 6.6 4.6 8.7 10.5 8.7 3.4 0 8.5-1.8 8.5-6.5 0-3.7-3.7-5.1-6.6-5.8l-7.2-1.8c-3.8-.9-7.3-2.8-7.3-7.8.1-3.2 2.1-9.1 11.2-9.1 6.3 0 11.9 3.4 11.9 10H91c-.2-4.9-4.2-7.4-8.8-7.4-4.2 0-8.1 1.6-8.1 6.4 0 3 2.3 4.3 4.9 4.9l7.8 1.9c4.6 1.2 8.3 3.2 8.3 8.5 0 2.2-.9 9.2-12.3 9.2-7.6 0-13.2-3.4-12.8-11.3l3.1.1zm22.4-12.7h3.2l7.3 20.4h.1l7.2-20.4h2.9l-8.7 23.3h-3l-9-23.3zM120 30.7c0 4.1 2.2 9.2 7.7 9.2 4.1 0 6.4-2.4 7.3-6h2.8c-1.2 5.3-4.3 8.3-10.1 8.3-7.4 0-10.5-5.7-10.5-12.3 0-6.1 3.1-12.3 10.5-12.3 7.5 0 10.5 6.5 10.2 13.1H120zm15.1-2.4c-.1-4.3-2.8-8.3-7.4-8.3s-7.2 4.1-7.7 8.3h15.1zm7.6-10h2.6v5.5h.1c1.4-3.7 4.6-6 8.8-5.8v2.8c-5.1-.3-8.7 3.5-8.7 8.3v12.4h-2.8V18.3zm15.6 0h2.8v23.3h-2.8V18.3zm0-8.9h2.8V14h-2.8V9.4zm28.4 30.3c0 6.9-2.7 11.2-10.3 11.2-4.6 0-9.2-2.1-9.6-7h2.8c.6 3.4 3.7 4.6 6.8 4.6 5.2 0 7.5-3.1 7.5-8.8v-3.2h-.1c-1.3 2.8-4.1 4.8-7.4 4.8-7.4 0-10.5-5.3-10.5-11.9 0-6.4 3.8-11.7 10.5-11.7 3.4 0 6.3 2.1 7.4 4.7h.1v-4h2.8v21.3zm-2.9-10c0-4.6-2.1-9.6-7.5-9.6s-7.7 4.8-7.7 9.6c0 4.7 2.4 9.2 7.7 9.2 4.9 0 7.5-4.5 7.5-9.2m10.2 1c0 4.1 2.2 9.2 7.7 9.2 4.1 0 6.4-2.4 7.3-6h2.8c-1.2 5.3-4.3 8.3-10.1 8.3-7.4 0-10.5-5.7-10.5-12.3 0-6.1 3.1-12.3 10.5-12.3 7.5 0 10.5 6.5 10.2 13.1H194zm15-2.4c-.1-4.3-2.8-8.3-7.4-8.3-4.6 0-7.2 4.1-7.7 8.3H209zm21.1-3.2c-.1-3.5-2.8-5.1-6.1-5.1-2.5 0-5.5 1-5.5 4 0 2.5 2.9 3.4 4.8 3.9l3.8.9c3.2.5 6.6 2.4 6.6 6.4 0 5-5 7-9.3 7-5.4 0-9.1-2.5-9.6-8.2h2.8c.2 3.8 3.1 5.8 6.9 5.8 2.7 0 6.4-1.2 6.4-4.4 0-2.7-2.5-3.6-5.1-4.2l-3.7-.8c-3.7-1-6.5-2.3-6.5-6.2 0-4.7 4.6-6.5 8.7-6.5 4.6 0 8.3 2.4 8.5 7.5.1-.1-2.7-.1-2.7-.1zm16.7-15.7h14.7c5.3 0 9.8 2.6 9.8 8.4 0 4.1-2.1 7.4-6.3 8.2v.1c4.2.5 5.4 3.4 5.6 7.3.1 2.2.1 6.6 1.5 8.3h-3.4c-.8-1.3-.8-3.7-.9-5-.3-4.5-.6-9.5-6.4-9.3h-11.6v14.3h-3.1l.1-32.3zm3.1 15.3h11.5c3.7 0 6.9-2.3 6.9-6.3 0-3.9-2.3-6.4-6.9-6.4h-11.5v12.7zm25.7.7c.3-5.5 4.1-7.8 9.4-7.8 4.1 0 8.6 1.3 8.6 7.5v12.4c0 1.1.5 1.7 1.7 1.7.3 0 .7-.1.9-.2v2.4c-.6.1-1.1.2-1.8.2-2.9 0-3.3-1.6-3.3-4.1h-.1c-2 3-4 4.7-8.5 4.7-4.3 0-7.8-2.1-7.8-6.8 0-6.5 6.4-6.8 12.5-7.5 2.3-.3 3.6-.6 3.6-3.2 0-3.8-2.7-4.8-6.1-4.8-3.5 0-6.1 1.6-6.2 5.4l-2.9.1zm15.2 3.4c-.5.7-1.7.9-2.5 1-4.8.9-10.8.8-10.8 5.4 0 2.8 2.5 4.6 5.2 4.6 4.3 0 8.2-2.8 8.1-7.3v-3.7zm28.8 12.8H317v-4.4h-.1c-1.2 3-4.9 5.1-8.3 5.1-7.1 0-10.5-5.7-10.5-12.3s3.4-12.3 10.5-12.3c3.5 0 6.9 1.8 8.1 5.1h.1V9.4h2.8v32.2zm-11-1.7c6 0 8.2-5.1 8.2-9.9s-2.1-9.9-8.2-9.9c-5.4 0-7.6 5.1-7.6 9.9-.1 4.8 2.1 9.9 7.6 9.9m16.9-21.6h2.8v23.3h-2.8V18.3zm0-8.9h2.8V14h-2.8V9.4zM355 29.9c0 6.7-3.9 12.3-11 12.3s-11-5.6-11-12.3 3.9-12.3 11-12.3c7.2 0 11 5.7 11 12.3m-19.1 0c0 5 2.7 9.9 8.2 9.9s8.2-5 8.2-9.9c0-5-2.7-9.9-8.2-9.9s-8.2 5-8.2 9.9M42.7 25.8s.9-.4 1.7-1.9c.9-1.6 1.2-4.7.7-7.7-.3-2.1-1.5-3.5-2.8-4.3-2-1.2-3.8-1.8-7.4-2.1h11.2c2.4 0 4.3.3 5.6.9 3 1.5 4.3 5.2 3.9 8.4-.4 2.9-2.2 4.9-4.5 5.8-1.6.9-2.7.9-8.4.9M29 25.4L15.4 9.9H29v15.5zm12.9.4l14.9 15.8H43.2L29.4 25.8h12.5zm-27.6 0H7.7c-3.2 0-5.1-1.2-6.6-3.6C-.2 20-.4 16.1.9 13.9c1.3-2.1 3.2-4.1 7.5-4.1h6s-.5.1-.9.2c-1.4.7-2.2 1.8-2.7 3.5-.6 2-.6 5.9-.3 7.6s.8 3.1 1.5 3.8c.5.5 1.5.9 2.3.9m15.5 7.8c0 3.9-2.1 6.5-4.8 7.5-1.3.5-2.4.5-3.5.5h-6.3c.7-.1 1.7-.5 2.1-.9 1.2-.9 1.6-1.9 1.9-3.4.4-2.1.3-4.8.1-6.5-.1-.9-.5-2.7-1.5-3.6-.8-.7-1.7-1.2-2.7-1.3h7.3c3.3-.1 7.4 2 7.4 7.7m-29.2 8h13.7L.6 27.7v13.9z"/><path fill="none" d="M0 0h355v50.9H0z"/></svg>