<svg xmlns="http://www.w3.org/2000/svg" width="999.8" height="554.257"><path d="M.4 473.04l67.24-48.906s35.69 49.128 85.207 49.128c33.085 0 62.154-18.011 62.154-46.951 0-71.6-191.593-52.954-191.593-192.242 0-69.016 53.018-120.187 131.87-120.187 86.894 0 126.834 64.066 126.834 64.066l-64.174 46.509s-25.521-30.628-61.094-30.628c-30.417 0-47.876 17.054-47.876 39.934 0 70.762 191.554 56.81 191.554 190.982 0 71.367-55.316 129.027-147.094 129.027C54.22 553.772.4 473.04.4 473.04zm308.701-351.025h92.076l111.45 298.834 111.05-298.834h92.594l-158.195 422.89H466.13zM758.594.4h85.684v121.2H975.1l-30.862 83.75h-99.961v204.564c0 28.809 22.027 62.043 57.025 62.043 25.086 0 44.441-17.03 44.441-17.03l53.656 60.954s-33.94 37.976-99.164 37.976c-88.68 0-141.814-75.845-141.814-139.636z"/></svg>