<svg xmlns="http://www.w3.org/2000/svg" viewBox="0 0 126 126"><path d="M0 0h126v126H0z"/><path d="M13.5 82.4l6.7-4.8s3.5 4.9 8.4 4.9c3.3 0 6.2-1.8 6.2-4.7 0-7.1-19-5.2-19-19.1 0-6.8 5.3-11.9 13.1-11.9 8.6 0 12.6 6.3 12.6 6.3l-6.4 4.6s-2.5-3-6.1-3c-3 0-4.7 1.7-4.7 4 0 7 19 5.6 19 18.9 0 7.1-5.5 12.8-14.6 12.8-9.9 0-15.2-8-15.2-8zm30.6-34.8h9.1l11 29.6 11-29.6h9.2L68.8 89.5h-9.1L44.1 47.6zm44.5-12h8.5v12h13l-3.1 8.3h-9.9v20.3c0 2.9 2.2 6.1 5.7 6.1 2.5 0 4.4-1.7 4.4-1.7l5.3 6s-3.4 3.8-9.8 3.8c-8.8 0-14.1-7.5-14.1-13.8v-41z" fill="#fff"/></svg>